<svg xmlns="http://www.w3.org/2000/svg" width="345" height="276" viewBox="0 0 345 276">
    <defs>
        <path id="a" d="M64.404 40.748a21.853 21.853 0 0 1-14.922 5.858 21.97 21.97 0 0 1-4.396-.439l-7.8-7.823c-3.053-3.054-3.053-8.019 0-11.073 3.053-3.054 7.995-3.054 11.04 0L62.914 41.9l1.491-1.15z"/>
        <path id="b" d="M40.516 76.162a21.986 21.986 0 0 1 5.84 14.965c0 1.512-.148 2.984-.437 4.41l-7.8 7.822a7.783 7.783 0 0 1-11.042 0c-3.045-3.062-3.045-8.019 0-11.073l14.586-14.628-1.147-1.496z"/>
    </defs>
    <g fill="none" fill-rule="evenodd">
        <path fill="#4855B5" d="M22.008 225.776c-11.442 0-21.011-8-21.011-23.237 0-15.028 9.916-23.794 21.357-23.794 5.825 0 10.54 2.783 13.591 5.914l-5.408 6.54c-2.289-2.088-4.716-3.618-7.975-3.618-6.171 0-11.094 5.496-11.094 14.61 0 9.323 4.299 14.75 10.956 14.75 3.675 0 6.587-1.879 8.806-4.244l5.409 6.4c-3.745 4.383-8.737 6.68-14.631 6.68zm31.412 0c-7.004 0-9.362-4.592-9.362-11.549v-38.056h10.194v38.474c0 2.156.97 2.852 1.803 2.852.416 0 .693 0 1.248-.14l1.248 7.584c-1.11.487-2.843.835-5.131.835zm11.857-.835v-34.508H75.47v34.508H65.277zm5.062-39.586c-3.398 0-5.894-2.227-5.894-5.357 0-3.131 2.496-5.288 5.894-5.288 3.467 0 5.894 2.157 5.894 5.288 0 3.13-2.427 5.357-5.894 5.357zm15.463 39.586v-48.77h9.916v27.968h.278l10.886-13.706h11.095l-12.065 14.193 12.966 20.315h-11.025l-7.766-13.427-4.369 4.94v8.487h-9.916z"/>
        <path fill="#F9683D" d="M140.675 226.147c-5.894 0-12.135-2.226-16.711-6.54l5.824-7.026c3.26 2.782 7.42 4.73 11.164 4.73 4.23 0 6.31-1.67 6.31-4.383 0-2.852-2.565-3.756-6.518-5.426l-5.894-2.505c-4.646-1.878-9.084-5.774-9.084-12.384 0-7.514 6.657-13.497 16.088-13.497 5.2 0 10.679 2.087 14.562 5.983l-5.201 6.47c-2.982-2.295-5.755-3.617-9.361-3.617-3.537 0-5.756 1.53-5.756 4.105 0 2.783 2.982 3.757 6.865 5.357l5.825 2.365c5.478 2.227 8.945 5.914 8.945 12.315 0 7.513-6.24 14.053-17.058 14.053zm40.08 0c-8.737 0-16.781-6.61-16.781-18.089 0-11.48 8.044-18.088 16.78-18.088 8.669 0 16.712 6.609 16.712 18.088 0 11.48-8.043 18.09-16.711 18.09zm0-8.279c4.16 0 6.31-3.826 6.31-9.81 0-5.983-2.15-9.81-6.31-9.81-4.23 0-6.31 3.827-6.31 9.81 0 5.984 2.08 9.81 6.31 9.81zm35.434 8.28c-7.49 0-10.68-5.288-10.68-13.915v-21.429h10.194v20.107c0 4.94 1.318 6.54 4.3 6.54 2.565 0 4.09-1.114 6.101-3.827v-22.82h10.194v34.508h-8.321l-.763-4.8h-.208c-2.912 3.478-6.102 5.635-10.817 5.635zm30.44-.836v-34.508h8.322l.693 6.053h.278c2.496-4.661 6.24-6.887 9.777-6.887 1.941 0 3.12.278 4.091.695l-1.664 8.836c-1.248-.348-2.288-.557-3.745-.557-2.565 0-5.755 1.67-7.558 6.331v20.037H246.63zm43.27.835c-9.569 0-16.989-6.61-16.989-18.089 0-11.48 8.39-18.088 17.89-18.088 4.23 0 7.49 1.53 10.055 3.687l-4.784 6.61c-1.665-1.392-3.051-2.018-4.646-2.018-4.924 0-8.044 3.826-8.044 9.81 0 5.983 3.26 9.81 7.697 9.81 2.219 0 4.369-1.114 6.171-2.506l4.022 6.68c-3.397 2.991-7.627 4.104-11.372 4.104zm34.186 0c-9.847 0-17.405-6.679-17.405-18.089 0-11.2 7.974-18.088 16.226-18.088 9.777 0 14.631 7.166 14.631 16.558 0 1.809-.208 3.687-.416 4.522h-20.594c.901 5.01 4.368 7.305 8.945 7.305 2.565 0 4.923-.765 7.42-2.296l3.397 6.192c-3.536 2.435-8.113 3.896-12.204 3.896zm-7.628-21.846h12.412c0-3.826-1.664-6.54-5.755-6.54-3.19 0-5.963 2.157-6.657 6.54zM6.566 269.788A9.067 9.067 0 0 1 0 267.01l1.427-1.661c1.342 1.403 3.226 2.348 5.167 2.348 2.455 0 3.91-1.231 3.91-3.064 0-1.92-1.34-2.52-3.11-3.323l-2.684-1.174c-1.77-.744-3.797-2.09-3.797-4.84 0-2.864 2.484-4.984 5.88-4.984 2.227 0 4.197.946 5.539 2.32l-1.285 1.547c-1.142-1.088-2.512-1.776-4.253-1.776-2.084 0-3.483 1.06-3.483 2.75 0 1.804 1.627 2.491 3.112 3.122l2.655 1.145c2.17.945 3.853 2.234 3.853 5.012 0 2.979-2.426 5.356-6.365 5.356zm9.796-.344v-13.919h1.94l.2 2.005h.086c1.199-1.318 2.655-2.349 4.31-2.349 2.113 0 3.255 1.003 3.826 2.664 1.455-1.575 2.883-2.664 4.567-2.664 2.855 0 4.225 1.89 4.225 5.442v8.821h-2.341v-8.506c0-2.606-.828-3.723-2.57-3.723-1.084 0-2.197.716-3.482 2.148v10.081h-2.34v-8.506c0-2.606-.828-3.723-2.598-3.723-1.028 0-2.198.716-3.483 2.148v10.081h-2.34zm26.837.344c-2.312 0-4.053-1.46-4.053-3.952 0-3.036 2.598-4.554 8.507-5.213 0-1.776-.571-3.494-2.855-3.494-1.599 0-3.054.745-4.14 1.49l-.913-1.633c1.285-.83 3.226-1.805 5.453-1.805 3.397 0 4.824 2.263 4.824 5.728v8.535H48.08l-.2-1.66h-.086c-1.313 1.088-2.854 2.004-4.596 2.004zm.685-1.89c1.342 0 2.427-.659 3.769-1.862v-3.866c-4.625.572-6.223 1.718-6.223 3.494 0 1.575 1.084 2.234 2.454 2.234zm10.482 1.546v-13.919h1.94l.2 2.52h.086c.942-1.747 2.37-2.864 3.94-2.864.599 0 1.027.086 1.484.287l-.457 2.062c-.457-.143-.77-.23-1.342-.23-1.17 0-2.569.86-3.51 3.209v8.935h-2.341zm14.249.344c-2.97 0-3.968-1.89-3.968-4.64v-7.704H62.59v-1.776l2.17-.143.285-3.895h1.97v3.895h3.74v1.919h-3.74v7.733c0 1.718.542 2.692 2.141 2.692.485 0 1.113-.2 1.57-.372l.457 1.776c-.77.257-1.713.515-2.57.515zm11.17-.344v-18.788h2.37v7.876h8.706v-7.876h2.398v18.788h-2.398v-8.85h-8.706v8.85h-2.37zm18.36 0v-13.919h2.341v13.92h-2.34zm1.2-16.783c-.914 0-1.628-.63-1.628-1.518 0-.916.714-1.518 1.627-1.518.914 0 1.627.602 1.627 1.518 0 .888-.713 1.518-1.627 1.518zm5.799 16.783v-13.919h1.94l.2 2.52h.086c.942-1.747 2.37-2.864 3.94-2.864.6 0 1.027.086 1.484.287l-.457 2.062c-.456-.143-.77-.23-1.341-.23-1.17 0-2.57.86-3.511 3.209v8.935h-2.341zm9.881 0v-13.919h2.341v13.92h-2.34zm1.2-16.783c-.914 0-1.628-.63-1.628-1.518 0-.916.714-1.518 1.627-1.518.914 0 1.627.602 1.627 1.518 0 .888-.713 1.518-1.627 1.518zm5.799 16.783v-13.919h1.941l.2 2.005h.085c1.314-1.318 2.74-2.349 4.653-2.349 2.912 0 4.225 1.89 4.225 5.442v8.821h-2.34v-8.506c0-2.606-.8-3.723-2.627-3.723-1.427 0-2.398.744-3.796 2.148v10.081h-2.341zm20.272 6.416c-3.397 0-5.737-1.346-5.737-3.752 0-1.174.77-2.291 2.026-3.15v-.115c-.685-.43-1.227-1.174-1.227-2.263 0-1.174.8-2.09 1.513-2.577v-.115c-.914-.745-1.799-2.09-1.799-3.752 0-3.036 2.398-4.955 5.224-4.955.771 0 1.456.144 1.97.344h4.824v1.804h-2.854c.656.63 1.141 1.69 1.141 2.864 0 2.98-2.255 4.84-5.08 4.84a4.833 4.833 0 0 1-2.085-.486c-.485.43-.885.888-.885 1.661 0 .888.571 1.518 2.455 1.518h2.684c3.225 0 4.852 1.002 4.852 3.322 0 2.578-2.711 4.812-7.022 4.812zm0-12.402c1.599 0 2.94-1.288 2.94-3.322 0-2.033-1.313-3.236-2.94-3.236s-2.94 1.203-2.94 3.236c0 2.034 1.342 3.322 2.94 3.322zm.343 10.77c2.655 0 4.396-1.375 4.396-2.836 0-1.289-1-1.718-2.798-1.718h-2.398c-.542 0-1.198-.058-1.798-.23-.999.716-1.427 1.547-1.427 2.349 0 1.49 1.513 2.434 4.025 2.434zm18.735-4.44c-2.369 0-4.082-1.031-5.166-3.007l1.712-1.203c.828 1.49 1.884 2.12 3.226 2.12 1.998 0 2.997-1.146 2.997-4.01v-13.032h2.398v13.26c0 3.237-1.513 5.872-5.167 5.872zm14.021 0c-2.94 0-4.253-1.89-4.253-5.442v-8.821h2.37v8.506c0 2.607.77 3.724 2.597 3.724 1.427 0 2.426-.716 3.74-2.349v-9.881h2.34v13.92h-1.941l-.2-2.177h-.086c-1.284 1.518-2.654 2.52-4.567 2.52zm15.077 0c-1.97 0-3.854-.83-5.167-1.919l1.17-1.575c1.2.974 2.427 1.661 4.083 1.661 1.827 0 2.74-.974 2.74-2.177 0-1.432-1.656-2.062-3.168-2.635-1.97-.716-4.14-1.66-4.14-4.01 0-2.233 1.77-3.952 4.768-3.952 1.74 0 3.254.716 4.31 1.576l-1.113 1.489c-.942-.716-1.941-1.232-3.169-1.232-1.741 0-2.54.945-2.54 2.005 0 1.318 1.512 1.805 3.082 2.406 1.999.745 4.225 1.575 4.225 4.21 0 2.263-1.798 4.153-5.08 4.153zm12.108 0c-2.969 0-3.968-1.89-3.968-4.64v-7.704h-2.055v-1.776l2.17-.143.285-3.895h1.97v3.895h3.74v1.919h-3.74v7.733c0 1.718.542 2.692 2.14 2.692.486 0 1.114-.2 1.57-.372l.457 1.776c-.77.257-1.712.515-2.569.515zm14.14 0c-2.312 0-4.054-1.46-4.054-3.952 0-3.036 2.598-4.554 8.507-5.213 0-1.776-.57-3.494-2.854-3.494-1.599 0-3.055.745-4.14 1.49l-.913-1.633c1.284-.83 3.226-1.805 5.452-1.805 3.397 0 4.824 2.263 4.824 5.728v8.535h-1.94l-.2-1.66h-.086c-1.313 1.088-2.855 2.004-4.596 2.004zm.685-1.89c1.342 0 2.426-.659 3.768-1.862v-3.866c-4.624.572-6.223 1.718-6.223 3.494 0 1.575 1.085 2.234 2.455 2.234zm23.474 1.89c-4.681 0-8.164-3.609-8.164-9.738 0-6.043 3.54-9.738 8.307-9.738a6.823 6.823 0 0 1 5.138 2.32l-1.284 1.547c-1-1.06-2.227-1.776-3.825-1.776-3.54 0-5.88 2.922-5.88 7.59 0 4.726 2.254 7.704 5.794 7.704 1.798 0 3.14-.802 4.339-2.12l1.313 1.49c-1.484 1.719-3.311 2.721-5.738 2.721zm11.452 0c-1.77 0-2.484-1.117-2.484-3.15v-17.586h2.341v17.757c0 .745.314 1.032.657 1.032.142 0 .257 0 .514-.058l.314 1.776c-.314.143-.714.23-1.342.23zm4.772-.344v-13.919h2.34v13.92h-2.34zm1.199-16.783c-.914 0-1.627-.63-1.627-1.518 0-.916.713-1.518 1.627-1.518.913 0 1.627.602 1.627 1.518 0 .888-.714 1.518-1.627 1.518zm5.8 16.783v-20.392h2.312v13.805h.085l5.91-7.332h2.597l-4.653 5.585 5.28 8.334h-2.568l-4.054-6.702-2.597 3.036v3.666H264.1zm23.245-10.51l-.885 2.863h5.624l-.885-2.864a136.402 136.402 0 0 1-1.884-6.33h-.114c-.571 2.177-1.17 4.24-1.856 6.33zm-5.71 10.51l6.338-18.788h2.683l6.338 18.788h-2.541l-1.77-5.728h-6.822l-1.799 5.728h-2.426zm19.845 0l-3.854-13.919h2.398l2.056 8.048c.314 1.318.57 2.578.827 3.867h.115c.314-1.29.599-2.578.942-3.867l2.14-8.048h2.284l2.17 8.048c.342 1.318.656 2.578.97 3.867h.114c.314-1.29.571-2.55.857-3.867l2.027-8.048h2.226l-3.71 13.92h-2.855l-1.999-7.476c-.342-1.317-.6-2.606-.942-4.01h-.114c-.314 1.404-.6 2.721-.97 4.039l-1.942 7.446h-2.74zm21.186.344c-2.312 0-4.054-1.46-4.054-3.952 0-3.036 2.598-4.554 8.507-5.213 0-1.776-.57-3.494-2.855-3.494-1.598 0-3.054.745-4.139 1.49l-.913-1.633c1.284-.83 3.225-1.805 5.452-1.805 3.397 0 4.824 2.263 4.824 5.728v8.535h-1.94l-.2-1.66h-.086c-1.313 1.088-2.855 2.004-4.596 2.004zm.685-1.89c1.342 0 2.426-.659 3.768-1.862v-3.866c-4.624.572-6.223 1.718-6.223 3.494 0 1.575 1.085 2.234 2.455 2.234zm10.71 7.532c-.629 0-1.171-.114-1.628-.286l.457-1.862c.285.086.714.2 1.056.2 1.57 0 2.57-1.26 3.14-2.978l.314-1.031-5.566-13.948h2.426l2.826 7.704c.428 1.203.914 2.635 1.342 3.924h.114c.4-1.26.8-2.692 1.17-3.924l2.484-7.704h2.284l-5.224 15.065c-.97 2.75-2.398 4.84-5.196 4.84z"/>
        <g>
            <path fill="#28B4D2" d="M176.894 11.38c0 .782-.078 1.542-.234 2.278-1.047 5.074-5.529 8.88-10.893 8.88-3.873 0-7.277-1.98-9.268-4.988a11.05 11.05 0 0 1-1.859-6.17c0-6.164 4.982-11.16 11.127-11.16 6.146 0 11.127 4.996 11.127 11.16M201.174 31.476l-31.055 23.845a13.653 13.653 0 0 1-8.355 2.835c-3.552 0-7.09-1.363-9.744-4.033l-7.934-7.956c1.421.29 2.89.438 4.396.438a21.853 21.853 0 0 0 14.922-5.857l28.274-21.707a7.803 7.803 0 0 1 10.948 1.457c2.623 3.437 1.976 8.347-1.452 10.978"/>
            <path fill="#E1BA23" d="M163.404 40.748a21.853 21.853 0 0 1-14.922 5.857c-1.507 0-2.975-.148-4.395-.438l-7.801-7.823c-3.053-3.054-3.053-8.019 0-11.073 3.053-3.054 7.995-3.054 11.041 0l14.586 14.628 1.491-1.151z"/>
            <path d="M163.404 40.748a21.853 21.853 0 0 1-14.922 5.858 21.97 21.97 0 0 1-4.396-.439l-7.8-7.823c-3.053-3.054-3.053-8.019 0-11.073 3.053-3.054 7.995-3.054 11.04 0L161.914 41.9l1.491-1.15z"/>
            <path fill="#F9683D" d="M176.894 11.38c0 .782-.078 1.542-.234 2.278-1.047 5.074-5.529 8.88-10.893 8.88-3.873 0-7.277-1.98-9.268-4.988a11.05 11.05 0 0 1-1.859-6.17c0-6.164 4.982-11.16 11.127-11.16 6.146 0 11.127 4.996 11.127 11.16"/>
            <path fill="#4855B5" d="M201.174 31.476l-31.055 23.845a13.653 13.653 0 0 1-8.355 2.835c-3.552 0-7.09-1.363-9.744-4.033l-7.934-7.956c1.421.29 2.89.438 4.396.438a21.853 21.853 0 0 0 14.922-5.857l28.274-21.707a7.803 7.803 0 0 1 10.948 1.457c2.623 3.437 1.976 8.347-1.452 10.978"/>
            <path fill="#F9683D" d="M163.404 40.748a21.853 21.853 0 0 1-14.922 5.857c-1.507 0-2.975-.148-4.395-.438l-7.801-7.823c-3.053-3.054-3.053-8.019 0-11.073 3.053-3.054 7.995-3.054 11.041 0l14.586 14.628 1.491-1.151zM161.339 129.489c0-.783.078-1.543.234-2.28 1.047-5.073 5.529-8.879 10.893-8.879 3.873 0 7.277 1.981 9.268 4.988a11.05 11.05 0 0 1 1.859 6.17c0 6.164-4.982 11.16-11.127 11.16-6.146 0-11.127-4.996-11.127-11.16"/>
            <path fill="#4855B5" d="M137.06 109.392l31.054-23.845a13.654 13.654 0 0 1 8.354-2.835c3.553 0 7.09 1.363 9.745 4.033l7.933 7.956a21.963 21.963 0 0 0-4.395-.438 21.853 21.853 0 0 0-14.922 5.857l-28.275 21.707a7.803 7.803 0 0 1-10.947-1.457c-2.624-3.437-1.976-8.347 1.452-10.978"/>
            <path fill="#F9683D" d="M174.829 100.12a21.853 21.853 0 0 1 14.921-5.857c1.507 0 2.976.148 4.397.438l7.8 7.823c3.054 3.054 3.054 8.019 0 11.073-3.053 3.054-7.996 3.054-11.04 0L176.32 98.969l-1.491 1.151zM110.23 62.634c.781 0 1.539.078 2.273.235 5.06 1.049 8.855 5.544 8.855 10.924 0 3.884-1.976 7.298-4.974 9.295a10.972 10.972 0 0 1-6.153 1.864c-6.145 0-11.127-4.996-11.127-11.16 0-6.162 4.982-11.158 11.127-11.158"/>
            <path fill="#28B4D2" d="M130.27 38.285l23.777 31.143a13.741 13.741 0 0 1 2.826 8.38c0 3.562-1.358 7.11-4.02 9.772l-7.934 7.956c.289-1.425.437-2.897.437-4.409 0-5.771-2.21-11.033-5.84-14.964L117.87 47.807c-2.615-3.438-1.967-8.347 1.453-10.979a7.789 7.789 0 0 1 10.947 1.457"/>
            <path fill="#E1BA23" d="M139.515 76.163a21.984 21.984 0 0 1 5.841 14.964c0 1.512-.148 2.984-.437 4.409l-7.8 7.823a7.784 7.784 0 0 1-11.042 0c-3.045-3.062-3.045-8.019 0-11.073l14.586-14.628-1.148-1.495z"/>
            <path d="M139.516 76.162a21.986 21.986 0 0 1 5.84 14.965c0 1.512-.148 2.984-.437 4.41l-7.8 7.822a7.783 7.783 0 0 1-11.042 0c-3.045-3.062-3.045-8.019 0-11.073l14.586-14.628-1.147-1.496z"/>
            <path fill="#4855B5" d="M130.27 38.285l23.777 31.143a13.741 13.741 0 0 1 2.826 8.38c0 3.562-1.358 7.11-4.02 9.772l-7.934 7.956c.289-1.425.437-2.897.437-4.409 0-5.771-2.21-11.033-5.84-14.964L117.87 47.807c-2.615-3.438-1.967-8.347 1.453-10.979a7.789 7.789 0 0 1 10.947 1.457"/>
            <path fill="#F9683D" d="M139.515 76.163a21.984 21.984 0 0 1 5.841 14.964c0 1.512-.148 2.984-.437 4.409l-7.8 7.823a7.784 7.784 0 0 1-11.042 0c-3.045-3.062-3.045-8.019 0-11.073l14.586-14.628-1.148-1.495zM228.002 78.234c-.78 0-1.538-.078-2.272-.235-5.06-1.049-8.855-5.544-8.855-10.924 0-3.884 1.976-7.298 4.974-9.295a10.972 10.972 0 0 1 6.153-1.864c6.145 0 11.127 4.996 11.127 11.16 0 6.162-4.982 11.158-11.127 11.158"/>
            <path fill="#4855B5" d="M207.963 102.583L184.186 71.44a13.741 13.741 0 0 1-2.827-8.379c0-3.563 1.36-7.11 4.022-9.773l7.933-7.956a22.128 22.128 0 0 0-.437 4.409c0 5.771 2.21 11.033 5.84 14.964l21.645 28.356c2.616 3.438 1.968 8.347-1.452 10.979a7.789 7.789 0 0 1-10.947-1.457"/>
            <path fill="#F9683D" d="M198.718 64.705a21.984 21.984 0 0 1-5.841-14.964c0-1.511.148-2.984.437-4.409l7.8-7.823a7.784 7.784 0 0 1 11.042 0c3.045 3.062 3.045 8.019 0 11.073L197.57 63.21l1.148 1.495z"/>
        </g>
    </g>
</svg>
