<?xml version="1.0" encoding="UTF-8"?>
<svg width="24px" height="24px" viewBox="0 0 24 24" version="1.1" xmlns="http://www.w3.org/2000/svg" xmlns:xlink="http://www.w3.org/1999/xlink">
    <!-- Generator: Sketch 54.1 (76490) - https://sketchapp.com -->
    <title>capture resume or jd</title>
    <desc>Created with Sketch.</desc>
    <g id="Page-1" stroke="none" stroke-width="1" fill="none" fill-rule="evenodd">
        <g id="19-Candidate-Search---Upload-Resume-OR-Capture-Resume" transform="translate(-116.000000, -465.000000)">
            <g id="Group-6" transform="translate(106.000000, 373.000000)">
                <g id="Capture-JD-Button" transform="translate(0.000000, 88.000000)">
                    <g id="4:10" transform="translate(10.000000, 4.000000)">
                        <g id="Group-29">
                            <rect id="capture-resume-or-jd" x="0" y="0" width="24" height="24"></rect>
                            <path d="M14.1315789,5.85951069 L9.86842105,5.85951069 C9.78106589,5.85951069 9.69941423,5.90355668 9.66789606,5.94297144 L8.40807088,8.14805708 L5.13157895,8.14805708 C4.97411616,8.14805708 4.84210526,8.28630227 4.84210526,8.46210906 L4.84210526,17.5786084 C4.84210526,17.7546404 4.97394963,17.8926604 5.13157895,17.8926604 L18.8684211,17.8926604 L18.8684211,18.3224157 L18.8684211,17.8926604 C19.0260504,17.8926604 19.1578947,17.7546404 19.1578947,17.5786084 L19.1578947,8.46210906 C19.1578947,8.28630227 19.0258838,8.14805708 18.8684211,8.14805708 L15.6080162,8.14805708 L14.3096279,5.92739665 C14.2579547,5.88318419 14.1963269,5.85951069 14.1315789,5.85951069 Z M18.8684211,18.3224157 L18.8684211,18.752171 L5.13157895,18.752171 C4.50402932,18.752171 4,18.224533 4,17.5786084 L4,8.46210906 C4,7.8164785 4.50412449,7.28854639 5.13157895,7.28854639 L7.92460453,7.28854639 L8.96533985,5.47135742 C9.17718504,5.17826053 9.50764119,5 9.86842105,5 L14.1315789,5 C14.2449142,5 14.3554771,5.01754307 14.4605054,5.05082103 L15,5.75217105 L16.0861312,7.28854639 L18.8684211,7.28854639 C19.4958755,7.28854639 20,7.8164785 20,8.46210906 L20,17.5786084 C20,18.224533 19.4959707,18.752171 18.8684211,18.752171 L18.8684211,18.3224157 Z M12,15.752171 C13.6568542,15.752171 15,14.4090253 15,12.752171 C15,11.0953168 13.6568542,9.75217105 12,9.75217105 C10.3431458,9.75217105 9,11.0953168 9,12.752171 C9,14.4090253 10.3431458,15.752171 12,15.752171 Z M12,16.752171 C9.790861,16.752171 8,14.96131 8,12.752171 C8,10.5430321 9.790861,8.75217105 12,8.75217105 C14.209139,8.75217105 16,10.5430321 16,12.752171 C16,14.96131 14.209139,16.752171 12,16.752171 Z" id="Path" fill="#4855b5" fill-rule="nonzero"></path>
                        </g>
                    </g>
                </g>
            </g>
        </g>
    </g>
</svg>