<?xml version="1.0" encoding="UTF-8"?>
<svg width="337px" height="53px" viewBox="0 0 337 53" version="1.1" xmlns="http://www.w3.org/2000/svg" xmlns:xlink="http://www.w3.org/1999/xlink">
    <!-- Generator: sketchtool 53.2 (72643) - https://sketchapp.com -->
    <title>E6B0337E-96C7-49D6-BD78-B440A982AB52</title>
    <desc>Created with sketchtool.</desc>
    <g id="Page-1" stroke="none" stroke-width="1" fill="none" fill-rule="evenodd">
        <g id="Login" transform="translate(-173.000000, -533.000000)">
            <g id="cliksource-2" transform="translate(172.996908, 533.710015)">
                <g id="cliksource">
                    <path d="M21.0106579,51.0661184 C9.56921053,51.0661184 0,43.0652961 0,27.8289474 C0,12.8013158 9.91592105,4.03519737 21.3573684,4.03519737 C27.1821053,4.03519737 31.8973684,6.81809211 34.9484211,9.94884868 L29.5397368,16.4886513 C27.2514474,14.4014803 24.8244737,12.8708882 21.5653947,12.8708882 C15.3939474,12.8708882 10.4706579,18.3671053 10.4706579,27.4810855 C10.4706579,36.8037829 14.7698684,42.2304276 21.4267105,42.2304276 C25.1018421,42.2304276 28.0142105,40.3519737 30.2331579,37.9865132 L35.6418421,44.3871711 C31.8973684,48.7702303 26.9047368,51.0661184 21.0106579,51.0661184 Z M52.4226316,51.0661184 C45.4190789,51.0661184 43.0614474,46.4743421 43.0614474,39.5171053 L43.0614474,1.46101974 L53.2547368,1.46101974 L53.2547368,39.9345395 C53.2547368,42.0912829 54.2255263,42.7870066 55.0576316,42.7870066 C55.4736842,42.7870066 55.7510526,42.7870066 56.3057895,42.6478618 L57.5539474,50.23125 C56.4444737,50.7182566 54.7109211,51.0661184 52.4226316,51.0661184 Z M64.2801316,50.23125 L64.2801316,15.7233553 L74.4734211,15.7233553 L74.4734211,50.23125 L64.2801316,50.23125 Z M69.3421053,10.6445724 C65.9443421,10.6445724 63.4480263,8.41825658 63.4480263,5.2875 C63.4480263,2.15674342 65.9443421,0 69.3421053,0 C72.8092105,0 75.2361842,2.15674342 75.2361842,5.2875 C75.2361842,8.41825658 72.8092105,10.6445724 69.3421053,10.6445724 Z M84.8053947,50.23125 L84.8053947,1.46101974 L94.7213158,1.46101974 L94.7213158,29.4291118 L94.9986842,29.4291118 L105.885395,15.7233553 L116.980132,15.7233553 L104.914605,29.9161184 L117.881579,50.23125 L106.856184,50.23125 L99.0898684,36.8037829 L94.7213158,41.7434211 L94.7213158,50.23125 L84.8053947,50.23125 Z" id="Clik" fill="#4855B5"></path>
                    <path d="M139.678114,51.4371711 C133.784035,51.4371711 127.543246,49.2108553 122.966667,44.8973684 L128.791404,37.8705592 C132.050482,40.6534539 136.211009,42.6014803 139.955482,42.6014803 C144.185351,42.6014803 146.265614,40.9317434 146.265614,38.2184211 C146.265614,35.3659539 143.699956,34.4615132 139.747456,32.7917763 L133.853377,30.2871711 C129.207456,28.4087171 124.769561,24.5126645 124.769561,17.9032895 C124.769561,10.3894737 131.426404,4.40625 140.85693,4.40625 C146.057588,4.40625 151.535614,6.49342105 155.418772,10.3894737 L150.218114,16.8597039 C147.236404,14.5638158 144.462719,13.2419408 140.85693,13.2419408 C137.320482,13.2419408 135.101535,14.7725329 135.101535,17.3467105 C135.101535,20.1296053 138.083246,21.1036184 141.966404,22.7037829 L147.79114,25.0692434 C153.269167,27.2955592 156.736272,30.9828947 156.736272,37.3835526 C156.736272,44.8973684 150.495482,51.4371711 139.678114,51.4371711 Z M179.757851,51.4371711 C171.020746,51.4371711 162.977061,44.8277961 162.977061,33.3483553 C162.977061,21.8689145 171.020746,15.2595395 179.757851,15.2595395 C188.425614,15.2595395 196.469298,21.8689145 196.469298,33.3483553 C196.469298,44.8277961 188.425614,51.4371711 179.757851,51.4371711 Z M179.757851,43.1580592 C183.918377,43.1580592 186.067982,39.3315789 186.067982,33.3483553 C186.067982,27.3651316 183.918377,23.5386513 179.757851,23.5386513 C175.527982,23.5386513 173.447719,27.3651316 173.447719,33.3483553 C173.447719,39.3315789 175.527982,43.1580592 179.757851,43.1580592 Z M215.191667,51.4371711 C207.702719,51.4371711 204.512982,46.1496711 204.512982,37.5226974 L204.512982,16.0944079 L214.706272,16.0944079 L214.706272,36.2008224 C214.706272,41.1404605 216.023772,42.740625 219.005482,42.740625 C221.57114,42.740625 223.096667,41.6274671 225.107588,38.9141447 L225.107588,16.0944079 L235.300877,16.0944079 L235.300877,50.6023026 L226.979825,50.6023026 L226.217061,45.8018092 L226.009035,45.8018092 C223.096667,49.2804276 219.90693,51.4371711 215.191667,51.4371711 Z M245.632851,50.6023026 L245.632851,16.0944079 L253.953904,16.0944079 L254.647325,22.1472039 L254.924693,22.1472039 C257.421009,17.4858553 261.165482,15.2595395 264.70193,15.2595395 C266.643509,15.2595395 267.822325,15.5378289 268.793114,15.9552632 L267.128904,24.7909539 C265.880746,24.4430921 264.840614,24.234375 263.38443,24.234375 C260.818772,24.234375 257.629035,25.9041118 255.82614,30.5654605 L255.82614,50.6023026 L245.632851,50.6023026 Z M288.902325,51.4371711 C279.333114,51.4371711 271.913509,44.8277961 271.913509,33.3483553 C271.913509,21.8689145 280.303904,15.2595395 289.803772,15.2595395 C294.03364,15.2595395 297.292719,16.7901316 299.858377,18.946875 L295.073772,25.55625 C293.409561,24.1648026 292.022719,23.5386513 290.427851,23.5386513 C285.504561,23.5386513 282.384167,27.3651316 282.384167,33.3483553 C282.384167,39.3315789 285.643246,43.1580592 290.08114,43.1580592 C292.300088,43.1580592 294.449693,42.0449013 296.252588,40.6534539 L300.27443,47.3324013 C296.876667,50.3240132 292.646798,51.4371711 288.902325,51.4371711 Z M323.087982,51.4371711 C313.241404,51.4371711 305.683114,44.7582237 305.683114,33.3483553 C305.683114,22.1472039 313.657456,15.2595395 321.909167,15.2595395 C331.686404,15.2595395 336.540351,22.4254934 336.540351,31.8177632 C336.540351,33.6266447 336.332325,35.5050987 336.124298,36.3399671 L315.529693,36.3399671 C316.43114,41.3491776 319.898246,43.6450658 324.474825,43.6450658 C327.040482,43.6450658 329.398114,42.8797697 331.89443,41.3491776 L335.292193,47.5411184 C331.755746,49.9761513 327.179167,51.4371711 323.087982,51.4371711 Z M315.460351,29.5914474 L327.872588,29.5914474 C327.872588,25.7649671 326.208377,23.0516447 322.117193,23.0516447 C318.927456,23.0516447 316.153772,25.2083882 315.460351,29.5914474 Z" id="Source" fill="#F9683D"></path>
                </g>
            </g>
        </g>
    </g>
</svg>