<svg xmlns="http://www.w3.org/2000/svg" width="190" height="36" viewBox="0 0 190 36">
    <defs>
        <path id="a" d="M16.498 10.404a5.608 5.608 0 0 1-3.822 1.495c-.386 0-.762-.038-1.126-.112L9.55 9.79a1.997 1.997 0 0 1 0-2.827 2.002 2.002 0 0 1 2.829 0l3.736 3.735.382-.294z"/>
        <path id="b" d="M10.379 19.446a5.603 5.603 0 0 1 1.496 3.82c0 .386-.038.762-.112 1.126L9.765 26.39a1.998 1.998 0 1 1-2.829-2.828l3.737-3.734-.294-.382z"/>
    </defs>
    <g fill="none" fill-rule="evenodd">
        <path fill="#4855B5" d="M55.912 26C51.059 26 47 22.71 47 16.444c0-6.18 4.206-9.785 9.059-9.785 2.47 0 4.47 1.145 5.765 2.432l-2.295 2.69c-.97-.859-2-1.488-3.382-1.488-2.618 0-4.706 2.26-4.706 6.008 0 3.834 1.824 6.065 4.647 6.065 1.56 0 2.794-.772 3.736-1.745l2.294 2.632C60.529 25.056 58.412 26 55.912 26zm13.323 0c-2.97 0-3.97-1.888-3.97-4.75V5.6h4.323v15.822c0 .887.412 1.173.765 1.173.176 0 .294 0 .53-.057l.529 3.119c-.47.2-1.206.343-2.177.343zm5.03-.343V11.466h4.323v14.19h-4.323zm2.147-16.28c-1.441 0-2.5-.915-2.5-2.203 0-1.287 1.059-2.174 2.5-2.174 1.47 0 2.5.887 2.5 2.174 0 1.288-1.03 2.203-2.5 2.203zm6.559 16.28V5.6h4.205v11.501h.118l4.618-5.636h4.706L91.5 17.302l5.5 8.355h-4.676l-3.295-5.522-1.853 2.031v3.49h-4.205z"/>
        <path fill="#F9683D" d="M106.12 27c-2.51 0-5.17-.947-7.12-2.781l2.482-2.988c1.388 1.183 3.161 2.012 4.757 2.012 1.802 0 2.688-.71 2.688-1.864 0-1.213-1.093-1.598-2.777-2.308l-2.511-1.065c-1.98-.799-3.87-2.456-3.87-5.266 0-3.196 2.836-5.74 6.854-5.74 2.216 0 4.55.888 6.204 2.544l-2.216 2.752c-1.27-.976-2.452-1.539-3.988-1.539-1.507 0-2.453.651-2.453 1.746 0 1.183 1.27 1.598 2.925 2.278l2.482 1.006c2.334.947 3.812 2.515 3.812 5.237 0 3.195-2.66 5.976-7.269 5.976zm17.078 0c-3.723 0-7.15-2.81-7.15-7.692s3.427-7.693 7.15-7.693c3.693 0 7.12 2.811 7.12 7.693 0 4.881-3.427 7.692-7.12 7.692zm0-3.52c1.772 0 2.688-1.628 2.688-4.172 0-2.545-.916-4.172-2.688-4.172-1.803 0-2.689 1.627-2.689 4.172 0 2.544.886 4.171 2.689 4.171zM138.295 27c-3.19 0-4.55-2.249-4.55-5.917V11.97h4.344v8.55c0 2.101.561 2.782 1.831 2.782 1.094 0 1.744-.474 2.6-1.627V11.97h4.344v14.675h-3.546l-.325-2.041h-.088c-1.241 1.479-2.6 2.396-4.61 2.396zm12.97-.355V11.97h3.546l.296 2.574h.118c1.064-1.982 2.66-2.929 4.166-2.929.827 0 1.33.119 1.743.296l-.709 3.758c-.532-.148-.975-.237-1.595-.237-1.094 0-2.453.71-3.22 2.692v8.521h-4.344zm18.437.355c-4.077 0-7.238-2.81-7.238-7.692s3.575-7.693 7.622-7.693c1.803 0 3.191.651 4.284 1.568l-2.038 2.811c-.71-.592-1.3-.858-1.98-.858-2.097 0-3.427 1.627-3.427 4.172 0 2.544 1.389 4.171 3.28 4.171.945 0 1.86-.473 2.63-1.065l1.713 2.84C173.1 26.527 171.298 27 169.702 27zm14.566 0c-4.195 0-7.416-2.84-7.416-7.692 0-4.764 3.398-7.693 6.914-7.693 4.166 0 6.234 3.048 6.234 7.042 0 .769-.089 1.568-.177 1.923h-8.775c.384 2.13 1.861 3.106 3.811 3.106 1.093 0 2.098-.325 3.161-.976l1.448 2.633c-1.507 1.036-3.457 1.657-5.2 1.657zm-3.25-9.29h5.289c0-1.627-.71-2.781-2.452-2.781-1.36 0-2.541.917-2.837 2.781z"/>
        <g>
            <path fill="#28B4D2" d="M19.954 2.905a2.85 2.85 0 0 1-5.225 1.575 2.85 2.85 0 1 1 5.225-1.575M26.173 8.037l-7.955 6.088a3.505 3.505 0 0 1-2.14.723 3.52 3.52 0 0 1-2.496-1.03l-2.032-2.03c.364.073.74.111 1.126.111a5.608 5.608 0 0 0 3.822-1.495l7.243-5.543a2.003 2.003 0 0 1 2.805.372 1.998 1.998 0 0 1-.373 2.804"/>
            <path fill="#E1BA23" d="M16.498 10.404a5.608 5.608 0 0 1-3.822 1.495c-.386 0-.762-.038-1.126-.112L9.55 9.79a1.997 1.997 0 0 1 0-2.827 2.002 2.002 0 0 1 2.829 0l3.736 3.735.382-.294z"/>
            <path d="M16.498 10.404a5.608 5.608 0 0 1-3.822 1.495c-.386 0-.762-.038-1.126-.112L9.55 9.79a1.997 1.997 0 0 1 0-2.827 2.002 2.002 0 0 1 2.829 0l3.736 3.735.382-.294z"/>
            <path fill="#F9683D" d="M19.954 2.905a2.85 2.85 0 0 1-5.225 1.575 2.85 2.85 0 1 1 5.225-1.575"/>
            <path fill="#4855B5" d="M26.173 8.037l-7.955 6.088a3.505 3.505 0 0 1-2.14.723 3.52 3.52 0 0 1-2.496-1.03l-2.032-2.03c.364.073.74.111 1.126.111a5.608 5.608 0 0 0 3.822-1.495l7.243-5.543a2.003 2.003 0 0 1 2.805.372 1.998 1.998 0 0 1-.373 2.804"/>
            <path fill="#F9683D" d="M16.498 10.404a5.608 5.608 0 0 1-3.822 1.495c-.386 0-.762-.038-1.126-.112L9.55 9.79a1.997 1.997 0 0 1 0-2.827 2.002 2.002 0 0 1 2.829 0l3.736 3.735.382-.294zM15.97 33.061a2.85 2.85 0 0 1 5.225-1.575 2.85 2.85 0 1 1-5.225 1.575"/>
            <path fill="#4855B5" d="M9.75 27.93l7.955-6.088a3.505 3.505 0 0 1 2.14-.724c.91 0 1.816.348 2.496 1.03l2.032 2.031a5.644 5.644 0 0 0-1.126-.112 5.608 5.608 0 0 0-3.822 1.496l-7.243 5.542a2.003 2.003 0 0 1-2.804-.372 1.998 1.998 0 0 1 .372-2.803"/>
            <path fill="#F9683D" d="M19.425 25.563a5.608 5.608 0 0 1 3.822-1.496c.386 0 .762.038 1.126.112l1.999 1.997c.782.78.782 2.048 0 2.827-.782.78-2.049.78-2.829 0l-3.736-3.734-.382.294zM2.877 15.992a2.849 2.849 0 0 1 0 5.698 2.85 2.85 0 1 1 0-5.698"/>
            <path fill="#28B4D2" d="M8.01 9.775l6.091 7.951a3.5 3.5 0 0 1 .724 2.14c0 .91-.348 1.815-1.03 2.495l-2.032 2.031a5.64 5.64 0 0 0 .112-1.125 5.603 5.603 0 0 0-1.496-3.821l-5.545-7.24A2.001 2.001 0 0 1 8.01 9.775"/>
            <path fill="#E1BA23" d="M10.379 19.446a5.603 5.603 0 0 1 1.496 3.82c0 .386-.038.762-.112 1.126L9.765 26.39a1.999 1.999 0 1 1-2.829-2.828l3.737-3.734-.294-.382z"/>
            <path d="M10.379 19.446a5.603 5.603 0 0 1 1.496 3.82c0 .386-.038.762-.112 1.126L9.765 26.39a1.998 1.998 0 1 1-2.829-2.828l3.737-3.734-.294-.382z"/>
            <path fill="#4855B5" d="M8.01 9.775l6.091 7.951a3.5 3.5 0 0 1 .724 2.14c0 .91-.348 1.815-1.03 2.495l-2.032 2.031a5.64 5.64 0 0 0 .112-1.125 5.603 5.603 0 0 0-1.496-3.821l-5.545-7.24A2.001 2.001 0 0 1 8.01 9.775"/>
            <path fill="#F9683D" d="M10.379 19.446a5.603 5.603 0 0 1 1.496 3.82c0 .386-.038.762-.112 1.126L9.765 26.39a1.999 1.999 0 1 1-2.829-2.828l3.737-3.734-.294-.382zM33.046 19.975a2.849 2.849 0 0 1 0-5.698 2.85 2.85 0 1 1 0 5.698"/>
            <path fill="#4855B5" d="M27.913 26.191l-6.091-7.951a3.5 3.5 0 0 1-.724-2.14c0-.909.348-1.815 1.03-2.495l2.032-2.03c-.074.363-.112.739-.112 1.125 0 1.473.566 2.817 1.496 3.82l5.545 7.24a2.001 2.001 0 0 1-3.176 2.431"/>
            <path fill="#F9683D" d="M25.544 16.52a5.603 5.603 0 0 1-1.496-3.82c0-.386.038-.762.112-1.126l1.998-1.997a1.999 1.999 0 1 1 2.829 2.827l-3.737 3.735.294.382z"/>
        </g>
    </g>
</svg>
