<svg xmlns="http://www.w3.org/2000/svg" width="14" height="15" viewBox="0 0 14 15">
    <path fill="#7A7A7A" fill-rule="nonzero" d="M7 10.739a3.395 3.395 0 0 1-3.398-3.398A3.406 3.406 0 0 1 7 3.944a3.406 3.406 0 0 1 3.398 3.397A3.395 3.395 0 0 1 7 10.74zm0-6.112A2.71 2.71 0 0 0 4.285 7.34 2.722 2.722 0 0 0 7 10.056a2.722 2.722 0 0 0 2.715-2.715A2.71 2.71 0 0 0 7 4.627zm-6.727 5.48a1.045 1.045 0 0 1 .29-1.383l.615-.426a6.03 6.03 0 0 1-.085-.957c0-.324.034-.648.085-.956L.563 5.96a1.068 1.068 0 0 1-.307-1.383l.973-1.674a1.046 1.046 0 0 1 1.349-.426l.683.307a5.74 5.74 0 0 1 1.656-.956l.068-.751A1.042 1.042 0 0 1 6.027.12h1.93c.545 0 .99.41 1.04.956l.069.75a5.74 5.74 0 0 1 1.656.957l.683-.307a1.046 1.046 0 0 1 1.349.426l.973 1.674a1.046 1.046 0 0 1-.307 1.383l-.615.426c.051.325.085.632.085.956 0 .325-.034.65-.085.957l.632.426c.443.308.58.905.307 1.383l-.973 1.673a1.046 1.046 0 0 1-1.349.427l-.683-.307a5.74 5.74 0 0 1-1.656.956l-.068.751a1.042 1.042 0 0 1-1.042.956h-1.93c-.545 0-.99-.41-1.04-.956l-.069-.75a5.74 5.74 0 0 1-1.656-.957l-.683.307a1.046 1.046 0 0 1-1.349-.427l-.973-1.673zm.7-.82c-.17.103-.205.325-.12.479l.99 1.673c.103.17.308.239.479.154l1.076-.495.17.153c.53.461 1.127.82 1.793 1.042l.205.068.102 1.195c.017.205.171.342.359.342H7.99a.37.37 0 0 0 .359-.342l.102-1.195.205-.068a5.256 5.256 0 0 0 1.793-1.042l.17-.153 1.076.495c.188.068.376.017.478-.154l.94-1.673a.354.354 0 0 0-.103-.478l-.973-.683.05-.222c.07-.342.103-.683.103-1.042 0-.358-.034-.7-.102-1.041l-.051-.222.973-.683a.35.35 0 0 0 .102-.478l-.973-1.673a.367.367 0 0 0-.478-.154l-1.076.495-.17-.153A5.256 5.256 0 0 0 8.622 2.39l-.205-.068-.102-1.195a.357.357 0 0 0-.359-.342h-1.93a.37.37 0 0 0-.358.342l-.102 1.195-.205.068a5.256 5.256 0 0 0-1.793 1.042l-.17.153-1.076-.495c-.188-.068-.376-.017-.478.154L.87 4.917a.354.354 0 0 0 .102.478l.973.683-.05.222a5.255 5.255 0 0 0-.103 1.041c0 .359.034.7.102 1.042l.051.222-.973.683z"/>
</svg>
