<?xml version="1.0" encoding="UTF-8"?>
<svg width="16px" height="16px" viewBox="0 0 16 16" version="1.1" xmlns="http://www.w3.org/2000/svg" xmlns:xlink="http://www.w3.org/1999/xlink">
    <!-- Generator: sketchtool 53.2 (72643) - https://sketchapp.com -->
    <title>6D64F61F-3398-408C-A8E5-5EA8DFCC216F</title>
    <desc>Created with sketchtool.</desc>
    <defs>
        <path d="M10.9166667,9.66666667 L10.2583333,9.66666667 L10.025,9.44166667 C10.8416667,8.49166667 11.3333333,7.25833333 11.3333333,5.91666667 C11.3333333,2.925 8.90833333,0.5 5.91666667,0.5 C2.925,0.5 0.5,2.925 0.5,5.91666667 C0.5,8.90833333 2.925,11.3333333 5.91666667,11.3333333 C7.25833333,11.3333333 8.49166667,10.8416667 9.44166667,10.025 L9.66666667,10.2583333 L9.66666667,10.9166667 L13.8333333,15.075 L15.075,13.8333333 L10.9166667,9.66666667 L10.9166667,9.66666667 Z M5.91666667,9.66666667 C3.84166667,9.66666667 2.16666667,7.99166667 2.16666667,5.91666667 C2.16666667,3.84166667 3.84166667,2.16666667 5.91666667,2.16666667 C7.99166667,2.16666667 9.66666667,3.84166667 9.66666667,5.91666667 C9.66666667,7.99166667 7.99166667,9.66666667 5.91666667,9.66666667 L5.91666667,9.66666667 Z" id="path-1"></path>
    </defs>
    <g id="Page-1" stroke="none" stroke-width="1" fill="none" fill-rule="evenodd">
        <g id="dashboard-skill" transform="translate(-1325.000000, -593.000000)">
            <g id="open_position_card" transform="translate(410.000000, 436.000000)">
                <g id="Group-7" transform="translate(861.000000, 137.000000)">
                    <g id="Group-2" transform="translate(29.000000, 11.000000)">
                        <g id="ic_create-copy-3" transform="translate(25.000000, 9.000000)">
                            <g id="ic_create-copy">
                                <mask id="mask-2" fill="white">
                                    <use xlink:href="#path-1"></use>
                                </mask>
                                <g id="Mask"></g>
                                <g id="Colors/CS/Blue" mask="url(#mask-2)" fill="#303030">
                                    <g transform="translate(-13.000000, -13.000000)">
                                        <path d="M0,0 L42,0 L42,42 L0,42 L0,0 Z"></path>
                                    </g>
                                </g>
                            </g>
                        </g>
                    </g>
                </g>
            </g>
        </g>
    </g>
</svg>