<svg xmlns="http://www.w3.org/2000/svg" width="27" height="27" viewBox="0 0 27 27">
    <path fill="#D0D0D0" fill-rule="nonzero" d="M14.542 11.007h-2.75v1.639h.554v5.88h-.554v1.639h3.305v-1.64h-.555v-7.518zM26.049 13.5c0-6.99-5.644-12.656-12.605-12.656C6.484.844.84 6.51.84 13.5s5.643 12.656 12.604 12.656c6.961 0 12.605-5.666 12.605-12.656zM13.444 2.276c6.174 0 11.178 5.024 11.178 11.224s-5.004 11.224-11.178 11.224C7.27 24.724 2.267 19.7 2.267 13.5S7.27 2.276 13.444 2.276zm-1.273 5.839c0 .706.57 1.278 1.273 1.278s1.273-.572 1.273-1.278c0-.706-.57-1.279-1.273-1.279s-1.273.572-1.273 1.279z"/>
</svg>
