<svg xmlns="http://www.w3.org/2000/svg" width="26" height="40" viewBox="0 0 26 40">
    <g fill="#F9683D" fill-rule="evenodd">
        <path d="M12.041 37.638a.791.791 0 0 0 1.198 0l8.028-8.906c.33-.366.19-.665-.312-.665H4.325c-.5 0-.64.3-.311.665l8.027 8.906z"/>
        <path fill-opacity=".5" d="M19.902 37.621c0 1.034-3.255 1.872-7.27 1.872s-7.27-.838-7.27-1.872c0-1.034 3.255-1.872 7.27-1.872s7.27.838 7.27 1.872"/>
        <path d="M12.573 24.199l3.892-5.006a7.305 7.305 0 0 1-3.892 1.106c-1.409 0-2.684-.39-3.891-1.106l3.891 5.006z"/>
        <path d="M19.686 17.568l-6.442 8.32a.807.807 0 0 1-.604.326.709.709 0 0 1-.603-.325l-6.442-8.32s-5.234 0-5.57 5.395v4.55c3.423 2.47 7.784 3.965 12.548 3.965s9.126-1.495 12.682-4.03v-4.485c-.201-5.2-5.57-5.396-5.57-5.396"/>
        <path d="M12.573 17.373c-3.22-.065-5.837-3.835-5.837-8.645.939-3.835 4.227-3.835 5.904-2.145.805.78 3.355 2.47 5.704 2.08 0 4.875-2.55 8.775-5.77 8.71m-6.912-1.3c.537 0 1.074-.39 1.208-.91 1.342 2.275 3.355 3.64 5.703 3.64 2.349 0 4.362-1.43 5.704-3.64.134.52.603.91 1.208.91h.603c.873-4.485.403-7.8-.268-9.88a8.66 8.66 0 0 0-3.355-4.615c-4.63-3.25-7.783.39-7.783.39-6.71-.39-4.831 10.4-3.96 14.17.269 0 .94-.065.94-.065"/>
    </g>
</svg>
