<svg xmlns="http://www.w3.org/2000/svg" width="29" height="27" viewBox="0 0 29 27">
    <g fill="#D0D0D0" fill-rule="evenodd">
        <path d="M10.028 17.511c-1.376-1.32-2.152-3.136-2.146-4.994a7.003 7.003 0 0 1 2.133-5.026l5.559-5.412A7.325 7.325 0 0 1 20.715 0c1.943 0 3.769.738 5.14 2.078 1.399 1.352 2.16 3.125 2.165 5.012a6.925 6.925 0 0 1-2.11 5.003l-.59.574a11.109 11.109 0 0 0-.465-1.803c2.004-2.197 1.935-5.552-.182-7.64A5.758 5.758 0 0 0 20.641 1.6a5.75 5.75 0 0 0-4.024 1.617l-5.56 5.412c-2.18 2.188-2.18 5.599-.01 7.776l.596.58-1.085 1.057-.53-.531z"/>
        <path d="M10.028 17.511c-1.376-1.32-2.152-3.136-2.146-4.994a7.003 7.003 0 0 1 2.133-5.026l5.559-5.412A7.325 7.325 0 0 1 20.715 0c1.943 0 3.769.738 5.14 2.078 1.399 1.352 2.16 3.125 2.165 5.012a6.925 6.925 0 0 1-2.11 5.003l-.59.574a11.109 11.109 0 0 0-.465-1.803c2.004-2.197 1.935-5.552-.182-7.64A5.758 5.758 0 0 0 20.641 1.6a5.75 5.75 0 0 0-4.024 1.617l-5.56 5.412c-2.18 2.188-2.18 5.599-.01 7.776l.596.58-1.085 1.057-.53-.531z"/>
        <path d="M7.765 26.993a7.31 7.31 0 0 1-5.141-2.077C1.237 23.56.484 21.785.487 19.897a6.93 6.93 0 0 1 2.134-4.994l.507-.505c.093.613.237 1.218.433 1.812-2.014 2.196-1.948 5.559.171 7.65a5.755 5.755 0 0 0 4.033 1.624 5.748 5.748 0 0 0 4.024-1.617l5.559-5.412c2.18-2.188 2.18-5.599.011-7.776l-.605-.573L17.89 9l.594.513c1.376 1.36 2.117 3.124 2.114 4.997a6.932 6.932 0 0 1-2.135 4.994l-5.557 5.41a7.325 7.325 0 0 1-5.141 2.08"/>
    </g>
</svg>
