<svg xmlns="http://www.w3.org/2000/svg" width="27" height="25" viewBox="0 0 27 25">
    <g fill="none" fill-rule="evenodd">
        <path d="M0-1h26.84v24.686H0z"/>
        <path fill="#D0D0D0" d="M11.265 21.89h4.855v-7.777h-4.855v7.778zm5.965 0h4.516V9.494a.51.51 0 0 1 .075-.258l.219-.38-8.447-6.685-8.447 6.717.239.384a.43.43 0 0 1 .057.222V21.89h4.866v-8.526h6.922v8.526zm-12.303.968c-.29 0-.527-.217-.527-.484V9.493l-3.53 2.81a.56.56 0 0 1-.743-.06.458.458 0 0 1 .052-.68L13.24 1.172a.566.566 0 0 1 .347-.115c.13 0 .25.04.35.119l12.715 10.05a.468.468 0 0 1 .066.69.554.554 0 0 1-.736.049L22.81 9.457v12.917c0 .267-.237.484-.526.484H4.927z"/>
    </g>
</svg>
