<svg xmlns="http://www.w3.org/2000/svg" width="29" height="27" viewBox="0 0 29 27">
    <g fill="none" fill-rule="evenodd">
        <path d="M0 0h28.207v27H0z"/>
        <path fill="#D0D0D0" fill-rule="nonzero" d="M3.614 1.718a.55.55 0 0 0-.511.54v22.68c0 .298.252.54.564.54h6.77a.57.57 0 0 0 .495-.268.52.52 0 0 0 0-.544.57.57 0 0 0-.495-.268H4.23v-21.6h6.206a.57.57 0 0 0 .495-.268.52.52 0 0 0 0-.544.57.57 0 0 0-.495-.268h-6.77a.59.59 0 0 0-.053 0zm14.13 5.391a.562.562 0 0 0-.511.358.525.525 0 0 0 .158.587l5.695 5.004H9.255c-.295.013-.551.282-.537.565.014.283.295.528.59.515h13.778l-5.695 4.995a.527.527 0 0 0-.175.515.55.55 0 0 0 .38.402c.193.06.404.015.553-.116l6.77-5.94a.53.53 0 0 0 .186-.4.53.53 0 0 0-.186-.401l-6.77-5.94a.58.58 0 0 0-.405-.144z"/>
    </g>
</svg>
