<svg xmlns="http://www.w3.org/2000/svg" width="29" height="27" viewBox="0 0 29 27">
    <g fill="none" fill-rule="evenodd">
        <path d="M0 0h28.23v27H0z"/>
        <path fill="#D0D0D0" d="M14.13 22.145h-.005c-6.356 0-11.459-1.08-12.034-2.498 3.893-1.89 4.184-6.486 4.195-6.686l.001-.022-.001-.022c-.002-.021-.144-2.09.543-4.285C7.7 5.852 9.438 4.164 12 3.61c.49.657 1.302 1.055 2.187 1.055.87 0 1.674-.388 2.167-1.029 2.503.583 4.202 2.27 5.054 5.017.678 2.182.539 4.243.538 4.264l-.002.022v.022c.011.2.303 4.797 4.196 6.686-.574 1.418-5.667 2.498-12.008 2.498zm.056 4.08c-1.563 0-2.834-1.162-2.834-2.589 0-.229.032-.452.095-.668a55.373 55.373 0 0 0 5.476-.006c.064.218.096.444.096.674 0 1.427-1.27 2.588-2.833 2.588zm0-25.45c.923 0 1.673.687 1.673 1.53s-.75 1.528-1.673 1.528-1.674-.685-1.674-1.528.751-1.53 1.674-1.53zm12.611 18.306c-3.585-1.541-3.978-5.815-4.003-6.139.016-.263.115-2.281-.563-4.48-.919-2.983-2.854-4.898-5.61-5.562.056-.19.089-.39.089-.595C16.71 1.032 15.58 0 14.186 0c-1.393 0-2.524 1.032-2.524 2.305 0 .195.03.383.08.564-2.812.633-4.789 2.543-5.73 5.55-.693 2.216-.593 4.26-.576 4.523-.024.324-.409 4.594-4.003 6.139l-.257.11.013.26c.06 1.164 1.505 2.067 4.297 2.684 1.449.32 3.207.55 5.13.675a3.09 3.09 0 0 0-.113.826c0 1.858 1.649 3.364 3.683 3.364s3.683-1.506 3.683-3.364c0-.288-.041-.567-.116-.835 1.875-.127 3.588-.353 5.003-.666 2.784-.617 4.225-1.52 4.284-2.685l.014-.259-.257-.11z"/>
    </g>
</svg>
