<svg xmlns="http://www.w3.org/2000/svg" width="29" height="27" viewBox="0 0 29 27">
    <g fill="none" fill-rule="evenodd">
        <path d="M0 0h28.132v27H0z"/>
        <path fill="#D0D0D0" d="M21.228 25.942l-6.74-4.744a1.692 1.692 0 0 0-1.956 0L5.79 25.942V1.587c0-.29.248-.529.551-.529h14.334c.304 0 .552.238.552.53v24.354zM20.676 0H6.342C5.432 0 4.69.713 4.69 1.587v24.355c0 .4.23.762.603.944.372.18.816.145 1.152-.09l6.738-4.746a.576.576 0 0 1 .655 0l6.738 4.745a1.14 1.14 0 0 0 1.152.091 1.05 1.05 0 0 0 .603-.944V1.587C22.33.713 21.588 0 20.676 0z"/>
    </g>
</svg>
