<svg xmlns="http://www.w3.org/2000/svg" width="29" height="27" viewBox="0 0 29 27">
    <g fill="none" fill-rule="evenodd">
        <path d="M0 0h28.209v27H0z"/>
        <g fill="#D0D0D0">
            <path d="M26.057 8.045H1.982V4.776c0-.465.413-.844.921-.844h2.765v.739c0 .873.774 1.582 1.728 1.582h.115c.827 0 1.498-.614 1.498-1.371v-.95h10.137v.739c0 .873.774 1.582 1.727 1.582.827 0 1.498-.614 1.498-1.371v-.95h2.765c.508 0 .921.379.921.844v3.27zm0 16.258c0 .349-.31.633-.69.633H2.902c-.508 0-.921-.379-.921-.844V8.784h24.075v15.519zM6.474 2.707c0-.465.414-.843.922-.843h.115c.381 0 .691.283.691.632v2.386c0 .348-.31.632-.691.632h-.115c-.508 0-.922-.378-.922-.843V2.707zm13.478 0c0-.465.413-.843.921-.843.382 0 .691.283.691.632v2.386c0 .348-.31.632-.69.632-.509 0-.922-.378-.922-.843V2.707zm5.414.487h-2.995v-.698c0-.757-.67-1.371-1.498-1.371-.953 0-1.727.709-1.727 1.582v.487H9.009v-.698c0-.757-.671-1.371-1.498-1.371h-.115c-.954 0-1.728.709-1.728 1.582v.487H2.903c-.954 0-1.728.708-1.728 1.582v19.316c0 .874.774 1.582 1.728 1.582h22.463c.827 0 1.498-.614 1.498-1.371V4.565c0-.757-.671-1.371-1.498-1.371z"/>
            <path d="M6.247 12.614c0-.338.301-.614.67-.614h1.341c.37 0 .67.276.67.614v1.228c0 .338-.3.613-.67.613h-1.34c-.37 0-.67-.275-.67-.613v-1.228zm.67 2.455h1.341c.74 0 1.34-.55 1.34-1.227v-1.228c0-.678-.6-1.227-1.34-1.227h-1.34c-.74 0-1.341.55-1.341 1.227v1.228c0 .677.6 1.227 1.34 1.227zM12.698 12.614c0-.338.3-.614.67-.614h1.34c.37 0 .67.276.67.614v1.228c0 .338-.3.613-.67.613h-1.34c-.37 0-.67-.275-.67-.613v-1.228zm.67 2.455h1.34c.741 0 1.341-.55 1.341-1.227v-1.228c0-.678-.6-1.227-1.34-1.227h-1.34c-.741 0-1.342.55-1.342 1.227v1.228c0 .677.6 1.227 1.341 1.227zM19.148 12.614c0-.338.301-.614.67-.614h1.341c.37 0 .67.276.67.614v1.228c0 .338-.3.613-.67.613h-1.34c-.37 0-.67-.275-.67-.613v-1.228zm.67 2.455h1.341c.74 0 1.34-.55 1.34-1.227v-1.228c0-.678-.6-1.227-1.34-1.227h-1.34c-.741 0-1.341.55-1.341 1.227v1.228c0 .677.6 1.227 1.34 1.227zM6.247 18.202c0-.339.301-.614.67-.614h1.341c.37 0 .67.275.67.614v1.227c0 .339-.3.614-.67.614h-1.34c-.37 0-.67-.275-.67-.614v-1.227zm.67 2.455h1.341c.74 0 1.34-.55 1.34-1.228v-1.227c0-.678-.6-1.227-1.34-1.227h-1.34c-.74 0-1.341.549-1.341 1.227v1.227c0 .678.6 1.228 1.34 1.228zM12.698 18.202c0-.339.3-.614.67-.614h1.34c.37 0 .67.275.67.614v1.227c0 .339-.3.614-.67.614h-1.34c-.37 0-.67-.275-.67-.614v-1.227zm.67 2.455h1.34c.741 0 1.341-.55 1.341-1.228v-1.227c0-.678-.6-1.227-1.34-1.227h-1.34c-.741 0-1.342.549-1.342 1.227v1.227c0 .678.6 1.228 1.341 1.228zM19.148 18.202c0-.339.301-.614.67-.614h1.341c.37 0 .67.275.67.614v1.227c0 .339-.3.614-.67.614h-1.34c-.37 0-.67-.275-.67-.614v-1.227zm.67 2.455h1.341c.74 0 1.34-.55 1.34-1.228v-1.227c0-.678-.6-1.227-1.34-1.227h-1.34c-.741 0-1.341.549-1.341 1.227v1.227c0 .678.6 1.228 1.34 1.228z"/>
        </g>
    </g>
</svg>
