<svg xmlns="http://www.w3.org/2000/svg" width="29" height="27" viewBox="0 0 29 27">
    <g fill="#D0D0D0" fill-rule="evenodd">
        <path d="M27.625 20.054c-.014.494-.073.979-.176 1.444l-.04.181-7.042-3.775.106-.136c.223-.284.455-.597.712-.956l.07-.098 6.372 3.248-.002.092zm-.47 2.403c-.85 2.06-2.803 3.208-5.968 3.51l-.02.002-.02-.004c-9.36-1.86-15.816-7.336-19.744-16.752-.92-2.868.73-7.337 3.038-8.242.05-.022.102-.04.153-.058L4.77.852l3.525 8.62-1.148 1.338.069.19c1.572 4.326 5.082 7.38 10.43 9.077l.113.036.11-.046c.626-.259 1.274-.768 1.98-1.554l.074-.082 7.282 3.905-.05.121zM5.626.696a5.403 5.403 0 0 1 1.205.053l.077.013 2.88 6.97-1.007 1.171L5.432.71l.195-.014zm22.665 18.848l-7.248-3.695-.165.236c-.655.934-1.875 2.674-3.103 3.283l-.05.024-.054-.017c-5.005-1.626-8.189-4.355-9.733-8.342l-.031-.081 2.655-3.093L7.39.18 7.229.137C7.206.132 6.678 0 5.978 0 5.313 0 4.712.115 4.19.343 1.55 1.378-.269 6.227.775 9.44l.012.03c4.025 9.662 10.665 15.28 20.299 17.174l.046.009.047-.005c4.735-.431 7.129-2.751 7.115-6.896l-.002-.208z"/>
        <path d="M16.372 3.943l1.379 1.404c.234.24.565.378.906.378.343 0 .675-.14.912-.38l3.882-3.958 2.206 2.248-.027.027.394.402-3.855 3.93a1.348 1.348 0 0 0-.003 1.855l1.378 1.403-8.481 1.31 1.309-8.62zm-1.546 9.367a.493.493 0 0 0 .078-.006l9.107-1.406a.486.486 0 0 0 .396-.343.537.537 0 0 0-.12-.547l-1.629-1.661a.626.626 0 0 1 .003-.851l3.972-4.049a.56.56 0 0 0 .003-.762l-.022-.022.027-.027L23.824.764a.521.521 0 0 0-.371-.15.529.529 0 0 0-.377.153l-3.999 4.076a.592.592 0 0 1-.42.172.582.582 0 0 1-.415-.17l-1.63-1.66a.505.505 0 0 0-.366-.159.514.514 0 0 0-.505.441l-1.407 9.259a.457.457 0 0 0 .088.387.515.515 0 0 0 .404.197z"/>
    </g>
</svg>
