<svg xmlns="http://www.w3.org/2000/svg" width="24" height="24" viewBox="0 0 24 24">
    <path fill="#6FAD26" fill-rule="nonzero" d="M17.742 4.04c2.128.002 4.046 1.352 4.857 3.421.812 2.069.358 4.448-1.149 6.028l-.222.234-5.737 6.045-1.023 1.078-.373.393-.53.556a.779.779 0 0 1-1.133 0l-.54-.575-.044-.049-1.334-1.403-.33-.34-5.405-5.689-.222-.233C3.04 11.926 2.58 9.54 3.394 7.465c.814-2.076 2.738-3.428 4.873-3.425a5.097 5.097 0 0 1 3.716 1.618l.222.233.798.835.787-.828.223-.233a5.107 5.107 0 0 1 3.727-1.618l.002-.007z"/>
</svg>
