<svg xmlns="http://www.w3.org/2000/svg" width="24" height="24" viewBox="0 0 24 24">
    <path fill="#F9683D" fill-rule="nonzero" d="M16.263 4.04c1.915.002 3.64 1.196 4.37 3.027.73 1.83.322 3.935-1.034 5.333l-.2.207-5.161 5.348-.92.954-.336.347-.476.493a.709.709 0 0 1-1.02 0l-.486-.51-.04-.043-1.2-1.24-.296-.303L4.6 12.621l-.2-.207C3.036 11.017 2.623 8.906 3.355 7.07c.731-1.836 2.463-3.033 4.383-3.03a4.622 4.622 0 0 1 3.344 1.431l.2.207.718.738.708-.732.2-.207a4.632 4.632 0 0 1 3.353-1.43l.002-.007zm-.002-1.028a5.628 5.628 0 0 0-4.061 1.73l-.2.206-.2-.207a5.606 5.606 0 0 0-8.117-.005C1.441 7.052 1.44 10.81 3.678 13.13l.2.207 5.17 5.349 1.2 1.24.02.023.512.532c.673.692 1.76.692 2.434 0l.476-.49 1.255-1.3 5.164-5.346.2-.207c1.648-1.694 2.144-4.25 1.256-6.47C20.677 4.447 18.58 3 16.257 3.004l.004.008z"/>
</svg>
