<svg xmlns="http://www.w3.org/2000/svg" width="24" height="24" viewBox="0 0 24 24">
    <path fill="#4855B5" fill-rule="nonzero" d="M15.483 20.814C15.28 22.608 13.797 24 12 24c-1.797 0-3.279-1.392-3.483-3.186H3.752c-1.256 0-2.274-1.045-2.274-2.336 0-1.29 1.017-2.336 2.27-2.336a.21.21 0 0 0 .206-.214v-5.096c0-3.634 2.29-6.795 5.57-7.884V2.55C9.524 1.142 10.634 0 12 0c1.368 0 2.476 1.14 2.476 2.549v.4c3.28 1.088 5.57 4.25 5.57 7.883v5.096c0 .12.091.214.205.214 1.252 0 2.27 1.047 2.27 2.336 0 1.29-1.018 2.336-2.273 2.336h-4.765zm-1.251 0H9.768c.194 1.088 1.12 1.912 2.232 1.912s2.038-.824 2.232-1.912zm-3.935-16.77c-2.983.79-5.105 3.57-5.105 6.788v5.096c0 .821-.647 1.488-1.443 1.488-.57 0-1.033.477-1.033 1.062 0 .586.463 1.062 1.036 1.062h16.496c.572 0 1.036-.477 1.036-1.062 0-.585-.464-1.062-1.033-1.062-.798 0-1.443-.664-1.443-1.488v-5.096c0-3.217-2.122-5.998-5.105-6.788l-.465-.123V2.549c0-.705-.553-1.275-1.238-1.275-.682 0-1.238.572-1.238 1.275v1.372l-.465.123z"/>
</svg>
