<svg xmlns="http://www.w3.org/2000/svg" width="29" height="27" viewBox="0 0 29 27">
    <g fill="none" fill-rule="evenodd">
        <path d="M0 0h28.103v27H0z"/>
        <path fill="#D0D0D0" d="M20.297 19.915H8.155a.508.508 0 0 0-.517.497c0 .274.232.496.517.496h12.142a.508.508 0 0 0 .518-.496.508.508 0 0 0-.518-.497M20.297 15.832H8.155a.508.508 0 0 0-.517.497c0 .274.232.497.517.497h12.142a.508.508 0 0 0 .518-.497.508.508 0 0 0-.518-.497M13.226 9.62c0-1.275-.769-2.065-2.13-2.218.535-.198.915-.698.915-1.281 0-.757-.64-1.372-1.428-1.372-.787 0-1.428.615-1.428 1.372 0 .583.38 1.083.916 1.28-1.36.154-2.13.944-2.13 2.22v.205h5.285v-.205z"/>
        <path fill="#D0D0D0" d="M23.423 24.786c0 .375-.306.67-.697.67h-17c-.39 0-.697-.295-.697-.67V2.038c0-.376.307-.67.698-.67h17c.39 0 .696.294.696.67v22.748zM22.726.374h-17c-.954 0-1.731.747-1.731 1.664v22.748c0 .918.777 1.663 1.732 1.663h17c.954 0 1.73-.745 1.73-1.663V2.038c0-.917-.776-1.664-1.73-1.664z"/>
        <path fill="#D0D0D0" d="M20.297 11.749H8.155a.508.508 0 0 0-.517.496c0 .274.232.497.517.497h12.142a.509.509 0 0 0 .518-.497.508.508 0 0 0-.518-.496M20.297 7.666h-5.16a.508.508 0 0 0-.518.496c0 .275.233.497.518.497h5.16a.508.508 0 0 0 .518-.497.508.508 0 0 0-.518-.496"/>
    </g>
</svg>
