<svg xmlns="http://www.w3.org/2000/svg" width="27" height="26" viewBox="0 0 27 26">
    <g fill="none" fill-rule="evenodd">
        <path d="M0 0h26.794v25.714H0z"/>
        <path fill="#FFF" d="M16.035 2c-.845 0-1.534.638-1.534 1.421s.69 1.42 1.534 1.42c.051 0 .101-.002.15-.007l.031-.003c.761-.083 1.354-.684 1.354-1.41 0-.783-.689-1.42-1.535-1.42zm8.145 6.504c-.275 0-.497.206-.497.46 0 .253.222.46.497.46.273 0 .496-.207.496-.46 0-.254-.223-.46-.496-.46zm-13.294 2.143c-.45 0-.815.34-.815.756s.366.755.815.755c.45 0 .816-.339.816-.755 0-.417-.366-.756-.816-.756zm6.056-4.438l1.32 6.747 4.105-3.787-5.425-2.96zm-4.237 5.203l4.575 1.74-1.313-6.715-3.415 4.29c.098.208.153.436.153.676v.009zm5.324 2.92c-.646.121-1.132.65-1.132 1.283 0 .722.634 1.31 1.414 1.31.78 0 1.415-.588 1.415-1.31 0-.722-.634-1.31-1.415-1.31a1.44 1.44 0 0 0-.282.027zm.282 3.522c-1.332 0-2.417-1.004-2.417-2.239 0-.666.316-1.267.818-1.677l-4.292-1.631c-.324.468-.89.78-1.534.78-1.003 0-1.819-.756-1.819-1.685 0-.928.816-1.683 1.819-1.683.37 0 .714.102 1.001.278l3.44-4.32c-1.057-.286-1.829-1.189-1.829-2.256 0-1.296 1.138-2.35 2.537-2.35 1.4 0 2.537 1.054 2.537 2.35 0 .824-.46 1.55-1.157 1.97l5.42 2.956c.245-.457.756-.772 1.344-.772.827 0 1.499.623 1.499 1.39 0 .764-.673 1.387-1.499 1.387-.457 0-.867-.19-1.142-.49l-3.942 3.636c.95.302 1.634 1.137 1.634 2.117 0 1.235-1.085 2.239-2.418 2.239zm1.725 6.791H9.258a.522.522 0 0 1-.36-.14.445.445 0 0 1-.142-.337c.018-.572.04-1.198-.015-1.477-.126-.626-2.528-.421-2.833-.446-.212-.017-.94-.102-1.408-.473-.253-.201-.361-.583-.402-.96-.027-.25-.234-4.391-.234-4.391l-1.584-.093a.532.532 0 0 1-.269-.09c-.593-.41-.895-.783-.895-1.114 0-.165 0-.39 3.124-4.7a58.86 58.86 0 0 1-.162-2.14c-.038-.738 1.417-3.238 3.145-4.696 1.352-1.14 3.736-1.432 5.038-1.504.273-.017.514.179.531.435.017.257-.194.476-.47.492-1.17.065-3.3.316-4.423 1.263-1.622 1.368-2.795 3.557-2.82 3.976.05.958.173 2.244.174 2.257a.437.437 0 0 1-.082.3C3.887 12.576 2.5 14.55 2.166 15.12c.075.08.201.192.33.29l1.876.11a.483.483 0 0 1 .469.438s.166 3.114.269 4.489c.028.366.046.521.168.64.187.182.439.231.717.233 1.294.01 3.586-.183 3.695 1.059.018.215.086.774.079 1.337h9.766v-3.728a2.064 2.064 0 0 1 .526-1.5c.17-.188.386-.304.593-.415.542-.29 1.215-.653 1.565-2.637.064-.357.191-2.399.26-3.683a.485.485 0 0 1 .527-.44c.278.013.49.232.477.487-.019.332-.18 3.264-.274 3.786-.426 2.418-1.405 2.943-2.051 3.29-.147.079-.274.148-.332.212-.328.357-.291.835-.291.84l.003.041v4.212c0 .256-.224.464-.502.464z"/>
    </g>
</svg>
