<svg xmlns="http://www.w3.org/2000/svg" width="24" height="24" viewBox="0 0 24 24">
    <g fill="none" fill-rule="evenodd">
        <path d="M0 0h24v24H0z"/>
        <path fill="#ffffff" fill-rule="nonzero" d="M7.895 16.37h8.21c.239 0 .432.188.432.42a.425.425 0 0 1-.432.418h-8.21a.425.425 0 0 1-.432-.419c0-.231.193-.419.432-.419zm0-2.793h8.21c.239 0 .432.187.432.418 0 .232-.193.42-.432.42h-8.21a.425.425 0 0 1-.432-.42c0-.23.193-.418.432-.418zm0-2.794h8.21c.239 0 .432.187.432.419 0 .231-.193.419-.432.419h-8.21a.425.425 0 0 1-.432-.42c0-.23.193-.418.432-.418zm4.72-2.794h3.49c.239 0 .432.188.432.42a.425.425 0 0 1-.432.418h-3.49a.425.425 0 0 1-.43-.419c0-.231.193-.419.43-.419zm-3.078-.2c1.1 0 1.868.51 1.868 1.617v.22H7.669v-.22c0-1.107.768-1.617 1.868-1.617zm0 .44c-.797 0-1.313.292-1.403.957h2.805c-.09-.665-.606-.958-1.402-.958zm0-2.236c.578 0 1.046.456 1.046 1.018s-.468 1.018-1.046 1.018c-.579 0-1.047-.456-1.047-1.018s.468-1.018 1.047-1.018zm0 .44a.587.587 0 0 0-.596.578c0 .32.267.579.596.579a.587.587 0 0 0 .595-.579.587.587 0 0 0-.595-.579zM6.478 3.837h-.226c-.22 0-.39.165-.39.38v15.565c0 .214.17.379.39.379h11.496a.38.38 0 0 0 .39-.38V4.218a.38.38 0 0 0-.39-.379H6.478zm11.27-.439c.47 0 .842.362.842.818v15.566a.824.824 0 0 1-.842.818H6.252a.824.824 0 0 1-.841-.818V4.217c0-.38.258-.694.615-.789L17.748 3.4zM6.252 3h11.496C18.438 3 19 3.547 19 4.217v15.566c0 .67-.562 1.217-1.252 1.217H6.252C5.562 21 5 20.453 5 19.783V4.217C5 3.547 5.562 3 6.252 3zm0 .439c-.44 0-.8.35-.8.778v15.566c0 .428.36.778.8.778h11.496c.44 0 .8-.35.8-.778V4.217a.792.792 0 0 0-.8-.778H6.252z"/>
    </g>
</svg>
