<svg xmlns="http://www.w3.org/2000/svg" width="24" height="23" viewBox="0 0 24 23">
    <g fill="#5866D1" fill-rule="nonzero">
        <path d="M10.396 22.114a.44.44 0 0 1-.439-.44V10.593L.245.88a.439.439 0 0 1 .31-.75h22.89a.44.44 0 0 1 .31.75l-9.357 9.312v1.13l-.045 7.512c0 .132-.06.256-.163.338l-3.518 2.844a.44.44 0 0 1-.276.098zM1.615 1.008l9.092 9.092a.44.44 0 0 1 .128.31v10.345l2.641-2.135.044-8.611c0-.117.046-.229.13-.311l8.73-8.69H1.616z"/>
        <path d="M19.984 4.114H3.66a.439.439 0 1 1 0-.878h16.323a.439.439 0 1 1 0 .878z"/>
    </g>
</svg>
