<?xml version="1.0" encoding="UTF-8"?>
<svg width="41px" height="41px" viewBox="0 0 41 41" version="1.1" xmlns="http://www.w3.org/2000/svg" xmlns:xlink="http://www.w3.org/1999/xlink">
    <!-- Generator: sketchtool 53.2 (72643) - https://sketchapp.com -->
    <title>5D210D30-C240-481C-B50D-B62624DB4BFF</title>
    <desc>Created with sketchtool.</desc>
    <g id="Page-1" stroke="none" stroke-width="1" fill="none" fill-rule="evenodd">
        <g id="dashboard-skill" transform="translate(-672.000000, -234.000000)" fill="#FFFFFF" fill-rule="nonzero">
            <g id="Group-4" transform="translate(406.000000, 155.000000)">
                <g id="block" transform="translate(249.000000, 46.000000)">
                    <g id="noun_Jumping-Businessman_886334_000000-2" transform="translate(14.126364, 30.283552)">
                        <g id="noun_Jumping-Businessman_886334_000000" transform="translate(23.000000, 22.500000) rotate(-16.000000) translate(-23.000000, -22.500000) translate(5.000000, 5.000000)">
                            <path d="M29.0506154,12.6614035 C30.8936923,12.6614035 32.9635385,12.3777193 35.1566154,11.6089474 C35.7978462,11.384057 36.1352308,10.683136 35.9098462,10.0433114 C35.6849231,9.40348684 34.9824615,9.06684211 34.3412308,9.29142544 C32.4246154,9.9627193 30.6404615,10.2048026 29.0475385,10.2048026 C26.9029231,10.2054167 25.1027692,9.76239035 23.8486154,9.32197368 C23.2216923,9.10199561 22.732,8.88309211 22.4066154,8.72328947 C22.2436923,8.6433114 22.1216923,8.57837719 22.0446154,8.53554825 C22.0056923,8.51390351 21.978,8.49809211 21.9618462,8.48872807 C21.9538462,8.48412281 21.9484615,8.48074561 21.9461538,8.47936404 L21.946,8.47936404 C21.7912308,8.38510965 21.6238462,8.33015351 21.4550769,8.30942982 C21.3995385,8.28916667 21.3427692,8.27059211 21.2844615,8.25600877 C20.4233846,8.04171053 19.3087692,8.2739693 18.4249231,9.09247807 C19.6515385,9.16232456 20.4990769,9.3625 20.6829231,9.40962719 C21.5116923,9.62899123 22.0016923,10.4709868 21.7844615,11.2891886 C21.6056923,11.9614035 20.9943077,12.4309868 20.298,12.4309868 C20.1653846,12.4309868 20.0326154,12.4139474 19.9036923,12.3797149 L19.8872308,12.3754167 C19.8652308,12.3701974 19.828,12.3616009 19.778,12.3507018 C19.6295385,12.3195395 19.472,12.2912939 19.3113846,12.2667325 C18.9292308,12.2082456 18.3213846,12.1383991 17.5907692,12.1383991 C17.3556923,12.1383991 17.1236923,12.1471491 16.8941538,12.1611184 C16.196,14.5913158 16.0778462,16.4908333 16.4186154,19.4114912 C16.6387692,20.5416228 17.1135385,21.2070833 17.6983077,21.5959211 C17.6438462,22.4287061 17.4076923,23.7752851 16.5493846,25.3255702 C15.5215385,27.1696711 13.6123077,29.3560965 9.82338462,31.3411184 C8.88246154,31.8326535 8.51876923,32.9919518 9.01123077,33.9312719 C9.35476923,34.5861404 10.0238462,34.9605482 10.7166154,34.9605482 C11.0172308,34.9605482 11.3223077,34.8900877 11.6070769,34.7411842 C15.9687692,32.4695614 18.5198462,29.7116228 19.9155385,27.1819518 C20.992,25.2392982 21.3855385,23.4642763 21.5095385,22.1870833 C22.6173846,22.1952193 24.2033846,22.4132018 25.9043077,23.3419298 C27.6332308,24.2918421 29.5364615,25.9753728 31.2290769,29.1754167 C31.7230769,30.1133553 32.886,30.4739474 33.826,29.9808772 C34.766,29.4876535 35.1276923,28.3275877 34.6335385,27.3896491 L34.6330769,27.3893421 C32.6490769,23.6119518 30.1658462,21.2879825 27.7507692,19.9751754 C25.5193846,18.7566228 23.3949231,18.40125 21.8273846,18.3551974 C21.8230769,16.1569518 22.356,13.8363596 22.7036923,12.0880482 C22.7935385,13.518136 22.7144615,14.9525219 22.4647692,16.3609649 C22.6589231,16.9076096 22.828,17.4751316 22.9686154,18.0612281 C23.312,17.5597149 23.6344615,17.0350219 23.9333846,16.4883772 C23.9581538,15.3051316 23.7706154,13.3847368 23.4866154,11.7913158 C24.9090769,12.2473904 26.8075385,12.6580263 29.0472308,12.6610965 C29.0483077,12.6614035 29.0495385,12.6614035 29.0506154,12.6614035 Z" id="Shape"></path>
                            <path d="M10.254,15.1001974 L10.3616923,15.2495614 L9.57046154,15.8176974 L7.59292308,13.0767982 L8.38415385,12.5086623 L8.60430769,12.8136842 C8.66815385,12.7076096 8.74384615,12.6076754 8.83384615,12.5177193 C8.89476923,12.4567763 8.95907692,12.4002851 9.02092308,12.3408772 L8.524,11.6517763 L7.23369231,12.5785088 L6.15430769,11.0824123 C5.91753846,10.754364 5.45923077,10.6797588 5.13046154,10.9160088 L0.369230769,14.3355702 C0.0404615385,14.5718202 -0.034,15.0289693 0.202461538,15.3570175 L5.05830769,22.0874561 C5.29476923,22.4155044 5.75323077,22.4901096 6.08169231,22.2535526 L10.8430769,18.8338377 C11.1718462,18.5978947 11.2463077,18.1402851 11.0096923,17.8123904 L9.93,16.3159868 L11.2203077,15.3895614 L10.826,14.8430702 C10.6543077,14.9678728 10.4606154,15.0552193 10.254,15.1001974 Z" id="Shape"></path>
                            <ellipse id="Oval" transform="translate(23.144155, 4.223802) rotate(-76.890715) translate(-23.144155, -4.223802) " cx="23.1441551" cy="4.22380207" rx="3.46047601" ry="3.45304074"></ellipse>
                            <path d="M19.3572308,11.9633991 C19.5698462,11.995943 19.7349231,12.0283333 19.8424615,12.0508991 C19.896,12.0624123 19.9352308,12.0716228 19.9587692,12.0771491 C19.9706154,12.0800658 19.9786154,12.0820614 19.9821538,12.0829825 L19.9821538,12.0828289 C20.6387692,12.2562939 21.3124615,11.865614 21.4866154,11.2102851 C21.6607692,10.5548026 21.2692308,9.8822807 20.6123077,9.70835526 C20.5406154,9.69039474 19.3418462,9.37600877 17.5903077,9.37508772 C16.4146154,9.37539474 14.9863077,9.51769737 13.4909231,10.0092325 C11.9969231,10.499386 10.4349231,11.34875 9.05169231,12.7340132 C8.57169231,13.2143421 8.57307692,13.991864 9.05446154,14.4708114 C9.29461538,14.7098246 9.60907692,14.8292544 9.92338462,14.8292544 C10.2390769,14.8292544 10.5547692,14.7089035 10.7952308,14.4682018 C11.8812308,13.3825877 13.0769231,12.7327851 14.2615385,12.3416447 C15.4444615,11.951886 16.6149231,11.8307675 17.5904615,11.8310746 C18.3161538,11.8313816 18.932,11.8980044 19.3572308,11.9633991 Z" id="Shape"></path>
                        </g>
                    </g>
                </g>
            </g>
        </g>
    </g>
</svg>