<?xml version="1.0" encoding="UTF-8"?>
<svg width="40px" height="40px" viewBox="0 0 40 40" version="1.1" xmlns="http://www.w3.org/2000/svg" xmlns:xlink="http://www.w3.org/1999/xlink">
    <!-- Generator: sketchtool 53.2 (72643) - https://sketchapp.com -->
    <title>0CDF1D13-1A43-4A09-812A-283D0EEE524B</title>
    <desc>Created with sketchtool.</desc>
    <defs>
        <rect id="path-1" x="0" y="0" width="219" height="102" rx="3"></rect>
        <filter x="-4.3%" y="-8.3%" width="108.7%" height="118.6%" filterUnits="objectBoundingBox" id="filter-2">
            <feOffset dx="0" dy="1" in="SourceAlpha" result="shadowOffsetOuter1"></feOffset>
            <feGaussianBlur stdDeviation="3" in="shadowOffsetOuter1" result="shadowBlurOuter1"></feGaussianBlur>
            <feColorMatrix values="0 0 0 0 0   0 0 0 0 0   0 0 0 0 0  0 0 0 0.185423951 0" type="matrix" in="shadowBlurOuter1"></feColorMatrix>
        </filter>
    </defs>
    <g id="Page-1" stroke="none" stroke-width="1" fill="none" fill-rule="evenodd">
        <g id="dashboard-skill" transform="translate(-922.000000, -232.000000)">
            <g id="background">
                <g fill="#F6F6FB" opacity="0.604143415">
                    <path d="M32.4714312,53.0996321 L39.7586172,86.2154575 L7.31784232,75.7123245 L32.4714312,53.0996321 Z M57.4859419,144.712131 L67.7431274,154.578209 L53.9548488,158.532913 L57.4859419,144.712131 Z M95.2205439,197.593344 L118.910227,237.108676 L72.5532046,237.709879 L95.2205439,197.593344 Z M97.1686216,296.907589 L109.466275,324.069295 L79.6340938,320.990196 L97.1686216,296.907589 Z M82.5162026,389.1246 L89.2057326,402.993645 L73.7637043,401.781585 L82.5162026,389.1246 Z M94.8251065,440.372498 L121.470726,477.430618 L75.738079,481.874835 L94.8251065,440.372498 Z M0,566.402235 L16.403903,529.559224 L40.3228046,561.982838 L0,566.402235 Z M69.4892677,602.690924 L80.2709843,625.129875 L55.3072392,623.13046 L69.4892677,602.690924 Z M43.4207728,698.542458 L57.37077,730.923327 L22.1681207,726.63079 L43.4207728,698.542458 Z M46.0635379,778.101657 L64.0621281,813.787765 L23.9305735,811.355373 L46.0635379,778.101657 Z M49.8470528,871.919717 L56.2075203,883.49564 L42.9240854,883.164702 L49.8470528,871.919717 Z M58.9608166,927.25111 L83.4914368,961.694823 L41.1056638,965.619191 L58.9608166,927.25111 Z M75.578329,1016.12331 L95.2995751,1038.14169 L66.1437996,1044.18958 L75.578329,1016.12331 Z M135.12288,6.24837822 L141.473504,23.6308772 L123.157101,20.3283954 L135.12288,6.24837822 Z M195.504431,95.7460476 L204.235835,109.288291 L188.035838,110.031522 L195.504431,95.7460476 Z M152.911095,163.375083 L166.197343,197.520951 L129.8036,191.74609 L152.911095,163.375083 Z M136.288802,241.475949 L162.703796,271.035574 L123.593179,279.1008 L136.288802,241.475949 Z M158.079485,320.384718 L174.795575,345.467032 L144.5148,347.318904 L158.079485,320.384718 Z M170.254373,411.397944 L193.4364,432.309065 L163.477656,441.95176 L170.254373,411.397944 Z M155.109063,495.352959 L169.617342,537.787437 L125.410476,528.857636 L155.109063,495.352959 Z M133.455068,590.248497 L145.479909,600.994318 L130.026631,606.048011 L133.455068,590.248497 Z M164.383562,644.86341 L188.665276,665.617336 L158.281844,676.303863 L164.383562,644.86341 Z M180.956496,717.74346 L204.965397,753.801872 L161.444781,756.445237 L180.956496,717.74346 Z M131.744646,822.067686 L150.232611,844.079175 L121.712461,849.048755 L131.744646,822.067686 Z M136.709692,879.963018 L151.216564,920.86553 L108.34001,912.716191 L136.709692,879.963018 Z M158.316438,958.588973 L180.858621,988.218922 L143.660503,992.856185 L158.316438,958.588973 Z M295.865239,56.4203154 L302.973831,90.4048521 L269.870713,79.3018946 L295.865239,56.4203154 Z M232.027127,139.872444 L239.543531,161.870144 L216.630098,157.237017 L232.027127,139.872444 Z M244.134655,218.144984 L257.605122,244.002245 L228.307315,242.616443 L244.134655,218.144984 Z M297.782942,291.05799 L308.525283,323.520214 L274.889196,316.377477 L297.782942,291.05799 Z M290.595881,368.385842 L294.785099,386.726681 L276.738696,381.042827 L290.595881,368.385842 Z M227.699112,454.543937 L236.130985,468.695657 L219.55552,468.865263 L227.699112,454.543937 Z M291.215193,529.365763 L323.691124,558.49379 L281.863632,572.088432 L291.215193,529.365763 Z M234.78197,622.881705 L238.6815,641.918892 L220.180879,635.62694 L234.78197,622.881705 Z M254.680263,690.814375 L268.30401,723.574443 L232.941048,718.803425 L254.680263,690.814375 Z M228.300705,774.638119 L243.634452,790.262512 L222.262269,795.727119 L228.300705,774.638119 Z M261.022027,852.557246 L280.753117,895.747364 L233.227501,891.006683 L261.022027,852.557246 Z M281.620773,924.675036 L292.000302,954.435981 L260.891246,948.352245 L281.620773,924.675036 Z M293.434536,1017.43754 L315.75172,1039.58141 L285.164382,1047.8383 L293.434536,1017.43754 Z M335.791622,17.0049543 L350.005994,49.1693341 L314.858189,45.2187661 L335.791622,17.0049543 Z M389.994674,95.4902603 L418.911387,121.899083 L381.259051,133.763197 L389.994674,95.4902603 Z M335.855466,180.767648 L342.459214,211.539331 L312.39922,201.633265 L335.855466,180.767648 Z M382.98466,253.41549 L391.956533,299.386863 L347.504979,283.803837 L382.98466,253.41549 Z M347.86962,320.91932 L362.657742,346.049896 L333.317747,346.189166 L347.86962,320.91932 Z M341.010074,404.468385 L347.367729,415.794726 L334.300857,415.589269 L341.010074,404.468385 Z M331.206826,510.248324 L337.811981,520.929336 L325.17964,521.268547 L331.206826,510.248324 Z M391.598642,583.884428 L402.137078,599.43436 L383.273644,600.737427 L391.598642,583.884428 Z M403.441234,643.881766 L409.827014,669.048194 L384.740925,661.807554 L403.441234,643.881766 Z M357.294586,746.043315 L375.987864,769.122078 L346.436932,773.729006 L357.294586,746.043315 Z M382.796503,814.674953 L394.516189,846.480817 L360.95182,840.529456 L382.796503,814.674953 Z M382.636613,887.530735 L415.779106,917.672258 L372.732396,931.334467 L382.636613,887.530735 Z M389.110283,971.044914 L397.273563,984.025942 L381.851222,984.5582 L389.110283,971.044914 Z M493.494091,46.0495574 L499.446746,66.781421 L478.428938,61.4229892 L493.494091,46.0495574 Z M461.878222,137.239835 L477.237282,156.187393 L452.96963,159.980766 L461.878222,137.239835 Z M439.425617,210.004195 L452.579677,241.276422 L418.745309,236.85151 L439.425617,210.004195 Z M442.564226,296.690824 L459.508129,317.235157 L433.046728,321.600776 L442.564226,296.690824 Z M477.51586,368.482779 L484.999921,382.805484 L468.759143,382.056738 L477.51586,368.482779 Z M454.443942,444.036529 L470.804252,486.761956 L425.402073,479.306207 L454.443942,444.036529 Z M478.538907,520.597433 L502.332652,559.100647 L456.801098,560.309949 L478.538907,520.597433 Z M503.78137,604.083345 L527.930897,644.972068 L480.147937,645.276806 L503.78137,604.083345 Z M499.367715,689.566051 L505.57912,705.860593 L488.27803,702.991087 L499.367715,689.566051 Z M433.174415,788.176777 L442.45707,805.697167 L422.526292,804.894643 L433.174415,788.176777 Z M489.671482,870.517921 L500.056637,883.493433 L483.505077,885.974087 L489.671482,870.517921 Z M486.518389,948.002002 L494.314638,965.334861 L475.304954,963.325793 L486.518389,948.002002 Z M492.300185,1059 L504.81862,1022.17078 L530.630334,1051.18436 L492.300185,1059 Z M552.877205,17.657453 L572.803763,39.9199031 L543.331581,46.0229445 L552.877205,17.657453 Z M569.931498,90.4209853 L587.346495,110.473048 L561.072125,115.5033 L569.931498,90.4209853 Z M530.625834,180.51186 L547.291299,194.840081 L526.364897,202.13174 L530.625834,180.51186 Z M534.207411,240.80194 L543.836003,261.104963 L521.314914,259.186904 L534.207411,240.80194 Z M584.102417,351.32256 L588.79226,360.224782 L578.679918,359.793184 L584.102417,351.32256 Z M587.664729,407.641664 L593.682072,429.355309 L571.779732,423.554248 L587.664729,407.641664 Z M583.086261,496.742621 L592.991884,538.808931 L551.451267,526.034738 L583.086261,496.742621 Z M533.445224,561.636181 L540.24866,585.535394 L516.048509,579.308251 L533.445224,561.636181 Z M584.128573,635.535519 L611.315599,672.625354 L565.277796,677.527367 L584.128573,635.535519 Z M599.370633,731.836852 L615.325942,773.905919 L570.698607,766.429487 L599.370633,731.836852 Z M608.27585,814.775889 L636.742563,851.534787 L590.340541,857.726078 L608.27585,814.775889 Z M584.189605,896.497765 L596.259446,914.2898 L574.6707,915.79005 L584.189605,896.497765 Z M547.237159,967.690447 L561.652625,990.101819 L534.862161,991.301468 L547.237159,967.690447 Z M679.752148,48.647142 L694.176052,77.139493 L662.106527,75.246254 L679.752148,48.647142 Z M662.391011,138.266569 L674.972728,181.613883 L630.957111,170.53023 L662.391011,138.266569 Z M712.038939,227.941979 L719.071594,243.16511 L702.282378,241.561442 L712.038939,227.941979 Z M668.879729,297.751893 L682.19832,314.169157 L661.166449,317.463366 L668.879729,297.751893 Z M676.92179,377.014765 L689.833975,418.270277 L647.46367,408.543469 L676.92179,377.014765 Z M694.005474,447.219874 L702.954847,464.882291 L683.071882,463.714357 L694.005474,447.219874 Z M695.093208,525.001523 L717.882891,556.370274 L679.052117,560.337389 L695.093208,525.001523 Z M701.012676,614.320073 L730.30767,648.503172 L685.718304,656.733867 L701.012676,614.320073 Z M682.50896,698.434766 L688.86099,724.134831 L663.32912,716.59221 L682.50896,698.434766 Z M649.642795,762.683135 L670.705603,782.788975 L642.524359,790.986576 L649.642795,762.683135 Z M673.480978,846.010059 L688.931444,859.288931 L669.535041,866.052469 L673.480978,846.010059 Z M693.890864,931.106395 L697.182895,948.120726 L680.745242,942.327939 L693.890864,931.106395 Z M641.905609,1004.37695 L657.720293,1042.90499 L616.235927,1037.11082 L641.905609,1004.37695 Z M760.395226,4.03330236 L763.306163,17.3838779 L750.240697,13.1258137 L760.395226,4.03330236 Z M808.133608,102.235321 L823.998917,119.35307 L801.061578,124.522591 L808.133608,102.235321 Z M804.193577,172.794533 L809.649826,194.979764 L787.623737,188.446504 L804.193577,172.794533 Z M797.868125,240.494995 L806.456092,266.13163 L779.838598,260.582909 L797.868125,240.494995 Z M750.675088,343.681348 L764.260866,358.372221 L744.590245,362.781965 L750.675088,343.681348 Z M766.396538,400.179434 L777.872942,441.330149 L736.3267,430.399555 L766.396538,400.179434 Z M811.266029,491.770421 L833.20915,525.63913 L792.640251,527.590283 L811.266029,491.770421 Z M819.487949,575.531563 L824.139823,598.710986 L801.660922,590.965666 L819.487949,575.531563 Z M746.590917,654.292236 L769.923412,691.369661 L725.865608,692.900248 L746.590917,654.292236 Z M795.313813,733.397499 L803.517874,772.620503 L765.311476,759.804943 L795.313813,733.397499 Z M793.670048,812.303647 L801.84739,823.86716 L787.648487,825.134375 L793.670048,812.303647 Z M808.783155,906.576885 L817.065965,922.103375 L799.373938,921.4415 L808.783155,906.576885 Z M757.707743,988.809094 L768.469772,1010.8261 L743.885714,1009.02663 L757.707743,988.809094 Z M902.150402,43.4230158 L909.478369,56.9045875 L894.046185,56.4495482 L902.150402,43.4230158 Z M914.26004,138.692789 L936.768473,171.872044 L896.510356,174.669846 L914.26004,138.692789 Z M877.760688,222.355063 L882.25225,233.389075 L870.391939,231.697156 L877.760688,222.355063 Z M919.868586,288.906758 L926.316241,320.017653 L896.042497,309.801332 L919.868586,288.906758 Z M852.51274,371.956383 L878.323047,402.770813 L838.430555,409.666726 L852.51274,371.956383 Z M871.343408,460.553764 L881.429031,474.494512 L864.192628,476.220903 L871.343408,460.553764 Z M884.260515,545.326196 L889.488951,566.216634 L868.701768,560.143928 L884.260515,545.326196 Z M892.807841,624.678007 L903.792058,654.156276 L872.622533,648.745446 L892.807841,624.678007 Z M900.793652,703.833186 L909.68115,726.219738 L885.731311,722.589076 L900.793652,703.833186 Z M875.713188,775.563228 L886.238968,798.03665 L861.377879,795.798685 L875.713188,775.563228 Z M851.109303,864.455695 L869.754768,888.480388 L839.407899,892.561952 L851.109303,864.455695 Z M867.664377,940.209386 L887.100155,967.758565 L853.292505,970.735625 L867.664377,940.209386 Z M863.636456,1011.45874 L867.198487,1025.80765 L852.936302,1021.61163 L863.636456,1011.45874 Z M998.902914,3.92560974 L1004.62776,14.690735 L992.370884,14.2163911 L998.902914,3.92560974 Z M990.240135,95.0721758 L1009.1106,111.592858 L985.157948,119.699451 L990.240135,95.0721758 Z M990.296385,164.38982 L993.331072,175.829231 L981.861699,172.653608 L990.296385,164.38982 Z M1021.08425,245.210718 L1041.26253,281.124346 L999.820352,280.487291 L1021.08425,245.210718 Z M989.218354,337.123405 L997.089133,358.779136 L974.291013,354.630006 L989.218354,337.123405 Z M995.851352,422.76248 L1007.89307,447.977169 L979.880574,445.666121 L995.851352,422.76248 Z M980.222012,500.798538 L987.014198,510.452264 L975.176388,511.480929 L980.222012,500.798538 Z M981.416761,574.602455 L1001.16332,599.813008 L969.224576,604.254467 L981.416761,574.602455 Z M1021.05261,660.442023 L1038.58855,693.931532 L1000.5973,692.214793 L1021.05261,660.442023 Z M964.613202,727.333894 L973.351638,740.665165 L957.331641,741.521466 L964.613202,727.333894 Z M1012.38308,809.153948 L1034.11808,834.342439 L1001.18652,840.537867 L1012.38308,809.153948 Z M1023.71268,889.650252 L1044.57439,924.026398 L1004.11659,924.771008 L1023.71268,889.650252 Z M998.235368,972.816947 L1025.28458,1009.26973 L979.872559,1014.37582 L998.235368,972.816947 Z M1074.93237,57.9870293 L1082.65549,87.770037 L1052.88237,79.3490533 L1074.93237,57.9870293 Z M1101.03039,131.844035 L1111.60258,154.142336 L1086.86946,152.03123 L1101.03039,131.844035 Z M1068.74979,197.397401 L1102.12572,230.498059 L1056.39307,242.855821 L1068.74979,197.397401 Z M1102.30474,285.930801 L1112.61958,323.010984 L1075.19646,313.138011 L1102.30474,285.930801 Z M1050.55784,373.043651 L1065.86346,387.23536 L1045.74847,393.407347 L1050.55784,373.043651 Z M1086.52985,441.135999 L1095.46235,470.884534 L1065.10423,463.539097 L1086.52985,441.135999 Z M1130.23483,530.310452 L1147.35451,559.723913 L1113.10952,559.719776 L1130.23483,530.310452 Z M1087.73698,613.873031 L1102.59822,658.020111 L1056.72636,648.526338 L1087.73698,613.873031 Z M1128.40417,702.882568 L1137.22417,729.659558 L1109.50136,723.731638 L1128.40417,702.882568 Z M1068.7429,780.102589 L1083.3454,813.815481 L1046.65494,809.415389 L1068.7429,780.102589 Z M1100.49068,852.399637 L1108.57802,866.254892 L1092.43568,866.274197 L1100.49068,852.399637 Z M1070.61884,940.005998 L1075.03868,956.505996 L1058.47165,951.963877 L1070.61884,940.005998 Z M1067.48093,1029.21079 L1085.73265,1052.89351 L1055.88359,1056.80685 L1067.48093,1029.21079 Z M1167.53743,16.45284 L1180.34133,51.0565059 L1143.79571,44.6280424 L1167.53743,16.45284 Z M1217.65701,81.1437004 L1226.03404,116.948394 L1190.70483,106.027452 L1217.65701,81.1437004 Z M1181.95571,171.56441 L1201.72336,205.719931 L1162.01509,205.617892 L1181.95571,171.56441 Z M1177.63388,262.550747 L1183.68075,271.432286 L1172.89341,272.200337 L1177.63388,262.550747 Z M1230.55781,341.407669 L1237.12359,373.446568 L1205.98359,362.8607 L1230.55781,341.407669 Z M1169.77041,410.006902 L1171.90369,420.751344 L1161.49604,417.141366 L1169.77041,410.006902 Z M1214.59054,502.298651 L1223.09835,536.288703 L1189.27664,526.408836 L1214.59054,502.298651 Z M1228.79718,578.849626 L1236.97452,611.99303 L1204.05422,602.257948 L1228.79718,578.849626 Z M1196.7157,654.254454 L1204.14633,679.783535 L1178.21368,673.273716 L1196.7157,654.254454 Z M1232.47902,730.102463 L1244.83293,752.313894 L1219.2659,751.810593 L1232.47902,730.102463 Z M1204.88545,814.32085 L1212.0967,832.239744 L1192.87608,829.419879 L1204.88545,814.32085 Z M1221.36768,884.420197 L1253.91252,917.638061 L1208.50331,929.20571 L1221.36768,884.420197 Z M1211.34408,989.94159 L1215.76814,1006.89111 L1198.81158,1002.12285 L1211.34408,989.94159 Z M1307.39473,41.3418318 L1321.27863,66.2876345 L1292.5602,65.7291772 L1307.39473,41.3418318 Z M1275.69786,137.886956 L1290.20754,153.286587 L1269.4513,158.144475 L1275.69786,137.886956 Z M1326.76779,200.856113 L1345.59466,218.404081 L1320.77154,225.94808 L1326.76779,200.856113 Z M1343.72786,290.419005 L1350.67333,324.079498 L1317.93443,312.998604 L1343.72786,290.419005 Z M1340.16429,371.880268 L1349.26413,385.694156 L1332.64085,386.620781 L1340.16429,371.880268 Z M1292.16223,443.948969 L1309.93723,479.448924 L1270.07989,476.915872 L1292.16223,443.948969 Z M1327.62054,538.310456 L1331.16147,551.805817 L1317.64882,548.024854 L1327.62054,538.310456 Z M1316.98999,623.622316 L1323.20702,638.903361 L1306.78062,636.55784 L1316.98999,623.622316 Z M1333.27436,693.692016 L1348.20733,718.137275 L1319.38905,718.753647 L1333.27436,693.692016 Z M1344.394,782.18722 L1358.029,819.136406 L1319.02666,812.239115 L1344.394,782.18722 Z M1305.90748,844.103306 L1327.8281,873.402318 L1291.23467,877.664519 L1305.90748,844.103306 Z M1284.29736,923.578943 L1295.77517,960.168235 L1258.18471,951.565235 L1284.29736,923.578943 Z M1322.44737,1006.13161 L1341.52455,1026.30364 L1314.29815,1032.72796 L1322.44737,1006.13161 Z M1358.87092,0 L1373.21889,16.3538345 L1351.71592,20.5829416 L1358.87092,0 Z M1431.94402,91.2073759 L1436.44402,112.312923 L1415.84246,105.49285 L1431.94402,91.2073759 Z M1376.209,153.48639 L1393.20915,186.367802 L1356.01947,184.49111 L1376.209,153.48639 Z M1365.77055,267.290739 L1370.60242,276.517004 L1360.1343,276.044039 L1365.77055,267.290739 Z M1408.61321,328.943592 L1416.33211,348.306201 L1395.60118,345.194009 L1408.61321,328.943592 Z M1383.68659,406.57108 L1392.6669,427.894495 L1369.59175,424.88572 L1383.68659,406.57108 Z M1380.78071,497.972055 L1408.2068,522.639318 L1372.82556,534.084245 L1380.78071,497.972055 Z M1376.86951,558.941659 L1391.66607,595.950139 L1352.01967,590.038765 L1376.86951,558.941659 Z M1374.96348,664.701328 L1385.01535,683.781261 L1363.33942,682.858773 L1374.96348,664.701328 Z M1406.97619,733.998151 L1426.84791,751.492341 L1401.54245,759.979512 L1406.97619,733.998151 Z M1409.5111,841.920221 L1426.1836,816.573156 L1440,843.59973 L1409.5111,841.920221 Z M1420.86291,894.211262 L1423.32244,906.371841 L1411.51838,902.326129 L1420.86291,894.211262 Z M1423.90744,986.338093 L1430.22853,1017.4876 L1399.98573,1007.14028 L1423.90744,986.338093 Z"></path>
                </g>
                <rect id="background_overlay" fill-opacity="0.03" fill="#5050E2" x="0" y="0" width="1440" height="1059"></rect>
            </g>
            <g id="Group-4" transform="translate(406.000000, 155.000000)">
                <g id="block" transform="translate(498.000000, 46.000000)">
                    <g id="Rectangle">
                        <use fill="black" fill-opacity="1" filter="url(#filter-2)" xlink:href="#path-1"></use>
                        <use fill="#FFFFFF" fill-rule="evenodd" xlink:href="#path-1"></use>
                    </g>
                    <path d="M3,0 L75,0 L75,102 L3,102 C1.34314575,102 2.02906125e-16,100.656854 0,99 L0,3 C-2.02906125e-16,1.34314575 1.34314575,3.04359188e-16 3,0 Z" id="Rectangle" fill="#FFAA3A"></path>
                    <g id="noun_loading_1713445_000000-2" transform="translate(18.000000, 31.000000)" fill="#FFFFFF" fill-rule="nonzero">
                        <g id="noun_loading_1713445_000000" transform="translate(3.000000, 2.000000)">
                            <path d="M3.74888364,13.5789334 L3.74888364,13.5789334 C4.20154551,13.4798587 4.50318289,13.049736 4.44306218,12.589063 C3.774359,7.78694747 6.66718658,3.20428255 11.2816773,1.75568953 C11.7226146,1.61310227 11.9812676,1.15572681 11.8769455,0.703077952 L11.8769234,0.702963596 C11.8201839,0.455484556 11.6624703,0.243245396 11.4422063,0.117953842 C11.2219423,-0.00733771185 10.9593508,-0.0341783892 10.7184067,0.0439709916 C5.28916599,1.76262015 1.88537557,7.15476125 2.65930292,12.8108631 C2.69195354,13.0626619 2.82848542,13.2891629 3.03563937,13.4351905 C3.24279331,13.581218 3.50155268,13.6333668 3.74888364,13.5789334 Z" id="Path"></path>
                            <path d="M30.2510975,21.2710705 L30.2510975,21.2710705 C29.7984362,21.3701469 29.4967998,21.8002707 29.5569206,22.2609445 C30.2256219,27.0630585 27.3328008,31.6457217 22.7183213,33.094313 C22.277385,33.2369003 22.0187326,33.6942757 22.1230545,34.1469245 L22.1230802,34.1470389 C22.1798194,34.3945178 22.3375328,34.6067568 22.5577965,34.7320477 C22.7780602,34.8573387 23.0406512,34.8841783 23.2815942,34.8060277 C28.7108302,33.0873887 32.1146225,27.6952466 31.3406978,22.0391408 C31.3080469,21.7873377 31.1715119,21.5608332 30.9643536,21.4148052 C30.7571952,21.2687772 30.498431,21.2166313 30.2510975,21.2710705 Z" id="Path"></path>
                            <path d="M19.3458942,32.9859739 L18.3937762,32.3452756 C18.5520252,32.1526094 18.7033185,31.9509221 18.8456185,31.7431872 C21.1248509,28.4214981 21.018198,24.0303438 18.5803441,20.8212025 C18.2438837,20.3935573 18.2218125,19.8003331 18.525581,19.3492882 L18.5702977,19.2840056 C18.8811857,18.8377492 19.4456282,18.6391996 19.9707982,18.7913624 C23.8796645,19.8530556 28.0368249,18.3311085 30.3107785,15.0058692 C30.4530785,14.7981307 30.5863889,14.5843446 30.708672,14.3674772 L31.66079,15.0081792 C32.0147346,15.2439154 32.4526071,15.3206847 32.8666653,15.2195976 C33.2807236,15.1185104 33.6325258,14.8489518 33.8355082,14.4772488 C34.1896853,13.7751717 33.955429,12.9214353 33.2912831,12.4938455 L16.4103451,1.1342989 C15.7643249,0.68024818 14.8772984,0.779449875 14.3496045,1.36476436 C14.0759327,1.68889881 13.9529568,2.1124396 14.0109362,2.53117063 C14.0689155,2.94990166 14.3024671,3.32494706 14.6541236,3.56402349 L15.6062416,4.20471468 C15.4479926,4.39738081 15.2966993,4.59906813 15.1543993,4.80680306 C12.8751616,8.1284883 12.9818072,12.5196426 15.4196556,15.7287877 C15.7561167,16.1564341 15.7781878,16.7496596 15.4744187,17.2007056 L15.429702,17.2659882 C15.1188123,17.7122424 14.5543707,17.9107902 14.0292015,17.7586278 C10.1203378,16.6969404 5.96318311,18.2188884 3.68923203,21.5441246 C3.54693203,21.7518632 3.41362169,21.9656493 3.29133489,22.1825166 L2.33920966,21.5418182 C1.98526541,21.3060809 1.54739256,21.2293109 1.13333394,21.3303982 C0.719275322,21.4314854 0.367473066,21.7010448 0.164491494,22.0727486 C-0.189685207,22.7748247 0.0445711974,23.6285598 0.708716604,24.0561483 L17.5896727,35.4156985 C18.2356916,35.8697518 19.1227192,35.7705515 19.6504133,35.1852366 C19.9240852,34.8611016 20.0470612,34.4375602 19.9890819,34.0188287 C19.9311025,33.6000971 19.6975508,33.225051 19.3458942,32.9859739 Z" id="Path"></path>
                        </g>
                    </g>
                </g>
            </g>
        </g>
    </g>
</svg>