<?xml version="1.0" encoding="UTF-8"?>
<svg width="24px" height="21px" viewBox="0 0 24 21" version="1.1" xmlns="http://www.w3.org/2000/svg" xmlns:xlink="http://www.w3.org/1999/xlink">
    <!-- Generator: sketchtool 53.2 (72643) - https://sketchapp.com -->
    <title>3F4A37D4-FE3E-4B35-B701-85A2E89E1039</title>
    <desc>Created with sketchtool.</desc>
    <g id="Page-1" stroke="none" stroke-width="1" fill="none" fill-rule="evenodd">
        <g id="Login" transform="translate(-886.000000, -688.000000)" fill="#FFFFFF" fill-rule="nonzero">
            <g id="Group" transform="translate(793.000000, 667.000000)">
                <g id="login-square-arrow-button-outline-2" transform="translate(93.000000, 21.000000)">
                    <g id="login-square-arrow-button-outline">
                        <path d="M13.0072549,15.1814902 C12.714,15.4747843 12.714,15.9494902 13.0072549,16.242 C13.300549,16.5352549 13.7752549,16.5352549 14.0677647,16.242 L19.242,11.0670196 C19.3980392,10.9109804 19.4647843,10.7032549 19.4542353,10.4992157 C19.4647843,10.2944706 19.398,10.0874902 19.242,9.9314902 L14.0677647,4.7572549 C13.7752549,4.464 13.2997647,4.464 13.0072549,4.7572549 C12.714,5.0505098 12.714,5.5252549 13.0072549,5.81772549 L16.9394902,9.74996078 L0.75,9.74996078 C0.336,9.75 0,10.086 0,10.5 C0,10.914 0.336,11.25 0.75,11.25 L16.9394902,11.25 L13.0072549,15.1814902 Z M21,0 L6,0 C4.3432549,0 3,1.3432549 3,3 L3,6 L4.5,6 L4.5,3 C4.5,2.172 5.1712549,1.5 6,1.5 L21,1.5 C21.8287451,1.5 22.5,2.172 22.5,3 L22.5,18 C22.5,18.828 21.8287451,19.5 21,19.5 L6,19.5 C5.1712549,19.5 4.5,18.8287451 4.5,18 L4.5,15 L3,15 L3,18 C3,19.6567451 4.3432549,21 6,21 L21,21 C22.6567451,21 24,19.6567451 24,18 L24,3 C24,1.3432549 22.6567451,0 21,0 Z" id="Shape"></path>
                    </g>
                </g>
            </g>
        </g>
    </g>
</svg>