<svg xmlns="http://www.w3.org/2000/svg" width="150" height="29" viewBox="0 0 150 29">
    <defs>
        <path id="a" d="M9.09 15.853a4.444 4.444 0 0 1 1.166 4.005l-1.682 1.617a1.73 1.73 0 0 1-2.381 0 1.576 1.576 0 0 1 0-2.289l3.145-3.024-.247-.309z"/>
    </defs>
    <g fill="none" fill-rule="evenodd">
        <path fill="#FFF" d="M17.001 2.197c0 .154-.016.304-.05.449-.222.999-1.173 1.748-2.311 1.748-.822 0-1.544-.39-1.967-.982a2.065 2.065 0 0 1-.394-1.215C12.279.984 13.336 0 14.639 0c1.305 0 2.362.984 2.362 2.197M22.467 6.394l-6.827 4.889a3.145 3.145 0 0 1-1.836.58 3.13 3.13 0 0 1-2.143-.826L9.917 9.406c.313.06.635.09.967.09a4.999 4.999 0 0 0 3.28-1.2l6.216-4.45c.753-.539 1.83-.405 2.406.298.577.704.435 1.711-.319 2.25"/>
        <path fill="#FFF" d="M14.168 8.476c-.882.74-2.061 1.19-3.355 1.19-.339 0-.669-.03-.988-.088L8.07 7.988c-.687-.62-.687-1.63 0-2.25.686-.62 1.797-.62 2.482 0l3.28 2.972.335-.234z"/>
        <path d="M14.083 8.478a5.063 5.063 0 0 1-3.276 1.17c-.331 0-.654-.029-.966-.087L8.13 7.997a1.47 1.47 0 0 1 0-2.214c.67-.611 1.755-.611 2.424 0l3.202 2.925.328-.23z"/>
        <path fill="#FFF" d="M14.083 8.478a5.063 5.063 0 0 1-3.276 1.17c-.331 0-.654-.029-.966-.087L8.13 7.997a1.47 1.47 0 0 1 0-2.214c.67-.611 1.755-.611 2.424 0l3.202 2.925.328-.23zM17.001 2.197c0 .154-.016.304-.05.449-.222.999-1.173 1.748-2.311 1.748-.822 0-1.544-.39-1.967-.982a2.065 2.065 0 0 1-.394-1.215C12.279.984 13.336 0 14.639 0c1.305 0 2.362.984 2.362 2.197"/>
        <path fill="#FFF" d="M22.467 6.394l-6.827 4.889a3.145 3.145 0 0 1-1.836.58 3.13 3.13 0 0 1-2.143-.826L9.917 9.406c.313.06.635.09.967.09a4.999 4.999 0 0 0 3.28-1.2l6.216-4.45c.753-.539 1.83-.405 2.406.298.577.704.435 1.711-.319 2.25"/>
        <path fill="#FFF" d="M14.168 8.476c-.882.74-2.061 1.19-3.355 1.19-.339 0-.669-.03-.988-.088L8.07 7.988c-.687-.62-.687-1.63 0-2.25.686-.62 1.797-.62 2.482 0l3.28 2.972.335-.234zM14.168 26.803c0-.154.016-.304.05-.449.221-.999 1.173-1.748 2.31-1.748.823 0 1.545.39 1.968.982.25.347.394.765.394 1.215 0 1.213-1.057 2.197-2.361 2.197-1.304 0-2.361-.984-2.361-2.197M8.702 22.606l6.827-4.889a3.145 3.145 0 0 1 1.836-.58c.781 0 1.559.279 2.142.826l1.744 1.631a5.166 5.166 0 0 0-.966-.09 4.999 4.999 0 0 0-3.28 1.2l-6.216 4.45c-.753.539-1.83.405-2.406-.298-.577-.704-.435-1.711.319-2.25"/>
        <path fill="#FFF" d="M17.001 20.524c.881-.74 2.061-1.19 3.355-1.19.339 0 .669.03.988.088l1.754 1.59c.686.62.686 1.63 0 2.25-.686.62-1.798.62-2.482 0l-3.28-2.972-.335.234zM2.361 13.182c.166 0 .327.015.483.046 1.073.207 1.879 1.092 1.879 2.15 0 .765-.42 1.438-1.056 1.83a2.459 2.459 0 0 1-1.306.368C1.057 17.576 0 16.592 0 15.379c0-1.214 1.057-2.197 2.361-2.197M6.873 8.096l5.253 6.352c.42.505.625 1.108.625 1.709 0 .727-.3 1.45-.889 1.993l-1.753 1.623c.064-.29.097-.591.097-.9 0-1.176-.488-2.25-1.29-3.051l-4.783-5.784c-.578-.7-.435-1.702.32-2.239.758-.536 1.84-.404 2.42.297"/>
        <path fill="#FFF" d="M9.11 15.818a4.468 4.468 0 0 1 1.184 4.041l-1.709 1.632a1.766 1.766 0 0 1-2.418 0 1.583 1.583 0 0 1 0-2.31l3.195-3.05-.252-.313z"/>
        <path fill="#FFF" d="M9.09 15.853a4.444 4.444 0 0 1 1.166 4.005l-1.682 1.617a1.73 1.73 0 0 1-2.381 0 1.576 1.576 0 0 1 0-2.289l3.145-3.024-.247-.309z"/>
        <path fill="#FFF" d="M6.873 8.096l5.253 6.352c.42.505.625 1.108.625 1.709 0 .727-.3 1.45-.889 1.993l-1.753 1.623c.064-.29.097-.591.097-.9 0-1.176-.488-2.25-1.29-3.051l-4.783-5.784c-.578-.7-.435-1.702.32-2.239.758-.536 1.84-.404 2.42.297"/>
        <path fill="#FFF" d="M9.11 15.818a4.468 4.468 0 0 1 1.184 4.041l-1.709 1.632a1.766 1.766 0 0 1-2.418 0 1.583 1.583 0 0 1 0-2.31l3.195-3.05-.252-.313zM28.808 15.818c-.166 0-.327-.015-.483-.046-1.073-.207-1.879-1.092-1.879-2.15 0-.765.42-1.438 1.056-1.83a2.459 2.459 0 0 1 1.306-.368c1.304 0 2.36.984 2.36 2.197 0 1.214-1.056 2.197-2.36 2.197M24.296 20.904l-5.253-6.352a2.665 2.665 0 0 1-.625-1.709c0-.727.3-1.45.888-1.993l1.753-1.623c-.063.29-.096.591-.096.9 0 1.176.488 2.25 1.29 3.051l4.783 5.784c.578.7.435 1.702-.32 2.239-.758.536-1.84.404-2.42-.297"/>
        <path fill="#FFF" d="M22.058 13.182a4.468 4.468 0 0 1-1.183-4.041l1.708-1.632a1.766 1.766 0 0 1 2.419 0 1.583 1.583 0 0 1 0 2.31l-3.195 3.05.251.313z"/>
        <g fill="#FFF">
            <path d="M48.425 23.024c-3.667 0-6.733-2.536-6.733-7.364 0-4.762 3.177-7.54 6.844-7.54 1.867 0 3.378.882 4.355 1.874l-1.733 2.072c-.733-.661-1.51-1.146-2.555-1.146-1.978 0-3.556 1.742-3.556 4.63 0 2.954 1.378 4.674 3.511 4.674 1.178 0 2.111-.596 2.822-1.345l1.734 2.028c-1.2 1.39-2.8 2.117-4.69 2.117zM58.491 23.024c-2.244 0-3-1.455-3-3.66V7.304h3.267v12.192c0 .684.311.904.578.904.133 0 .222 0 .4-.044l.4 2.403c-.356.154-.911.265-1.645.265zM62.291 22.76V11.823h3.267v10.935H62.29zm1.622-12.546c-1.088 0-1.888-.705-1.888-1.697 0-.992.8-1.676 1.888-1.676 1.111 0 1.89.684 1.89 1.676 0 .992-.779 1.697-1.89 1.697zM68.869 22.76V7.303h3.178v8.863h.088l3.49-4.343h3.555l-3.867 4.497 4.156 6.438h-3.534l-2.489-4.255-1.4 1.565v2.69zM86.535 23.024c-1.889 0-3.889-.706-5.355-2.073l1.866-2.226c1.045.881 2.378 1.499 3.578 1.499 1.355 0 2.022-.53 2.022-1.39 0-.903-.822-1.19-2.089-1.719l-1.889-.794c-1.488-.595-2.91-1.83-2.91-3.924 0-2.381 2.133-4.277 5.155-4.277 1.666 0 3.422.661 4.666 1.896l-1.666 2.05c-.956-.727-1.845-1.146-3-1.146-1.134 0-1.845.485-1.845 1.3 0 .883.956 1.191 2.2 1.698l1.867.75c1.755.705 2.867 1.874 2.867 3.902 0 2.381-2 4.454-5.467 4.454zM99.38 23.024c-2.8 0-5.379-2.095-5.379-5.733 0-3.637 2.578-5.732 5.378-5.732 2.778 0 5.356 2.095 5.356 5.732 0 3.638-2.578 5.733-5.356 5.733zm0-2.624c1.332 0 2.021-1.213 2.021-3.109s-.689-3.108-2.022-3.108c-1.355 0-2.022 1.212-2.022 3.108 0 1.896.667 3.11 2.022 3.11zM110.734 23.024c-2.4 0-3.422-1.676-3.422-4.41v-6.79h3.267v6.371c0 1.566.422 2.073 1.378 2.073.822 0 1.31-.353 1.955-1.213v-7.231h3.267v10.935h-2.667l-.244-1.521h-.067c-.933 1.102-1.956 1.786-3.467 1.786zM120.49 22.76V11.823h2.666l.222 1.918h.09c.8-1.477 2-2.183 3.133-2.183.622 0 1 .088 1.31.22l-.533 2.8c-.4-.11-.733-.176-1.2-.176-.822 0-1.844.53-2.422 2.007v6.35h-3.266zM134.356 23.024c-3.067 0-5.444-2.095-5.444-5.733 0-3.637 2.688-5.732 5.733-5.732 1.355 0 2.4.485 3.222 1.169l-1.533 2.094c-.534-.44-.978-.64-1.49-.64-1.577 0-2.577 1.213-2.577 3.11 0 1.895 1.045 3.108 2.467 3.108.71 0 1.4-.353 1.977-.794l1.29 2.117c-1.09.948-2.445 1.3-3.645 1.3zM145.311 23.024c-3.155 0-5.577-2.117-5.577-5.733 0-3.55 2.555-5.732 5.2-5.732 3.133 0 4.688 2.271 4.688 5.247 0 .574-.066 1.169-.133 1.433h-6.6c.289 1.588 1.4 2.315 2.867 2.315.822 0 1.577-.242 2.377-.727l1.09 1.962c-1.134.772-2.6 1.235-3.912 1.235zm-2.444-6.923h3.978c0-1.213-.534-2.072-1.845-2.072-1.022 0-1.91.683-2.133 2.072z"/>
        </g>
    </g>
</svg>
