<?xml version="1.0" encoding="UTF-8"?>
<svg width="141px" height="141px" viewBox="0 0 141 141" version="1.1" xmlns="http://www.w3.org/2000/svg" xmlns:xlink="http://www.w3.org/1999/xlink">
    <!-- Generator: sketchtool 53.2 (72643) - https://sketchapp.com -->
    <title>4AAAE859-7F0D-4204-91B6-4B553290DFF9</title>
    <desc>Created with sketchtool.</desc>
    <defs>
        <path d="M64.404419,40.7480844 C60.4845429,44.3893636 55.2373567,46.6055357 49.4823342,46.6055357 C47.9752511,46.6055357 46.5074078,46.4567532 45.0861048,46.1669708 L37.2855922,38.3437597 C34.2326424,35.2898279 34.2326424,30.3250714 37.2855922,27.2711396 C40.3389983,24.2172078 45.2813913,24.2172078 48.3265844,27.2711396 L62.9128494,41.898974 L64.404419,40.7480844 Z" id="path-1"></path>
        <path d="M40.5155775,76.1624318 C44.146174,80.0934935 46.3563801,85.3558149 46.3563801,91.1272013 C46.3563801,92.6388312 46.2076338,94.1106331 45.9188104,95.5361981 L38.1182978,103.358951 C35.0731048,106.421123 30.1224987,106.421123 27.0773056,103.358951 C24.0316563,100.297237 24.0316563,95.340263 27.0773056,92.2863312 L41.6631143,77.6584968 L40.5155775,76.1624318 Z" id="path-3"></path>
    </defs>
    <g id="Page-1" stroke="none" stroke-width="1" fill="none" fill-rule="evenodd">
        <g id="Login" transform="translate(-271.000000, -359.000000)">
            <g id="Logo-Symbol" transform="translate(271.000000, 359.000000)">
                <g>
                    <path d="M77.8942502,11.3792494 C77.8942502,12.162074 77.8162268,12.9220091 77.6601801,13.658139 C76.6134805,18.7323078 72.131471,22.5379344 66.7670216,22.5379344 C62.894142,22.5379344 59.4898589,20.5570675 57.4986658,17.5498305 C56.3196459,15.7877883 55.6402494,13.6659214 55.6402494,11.3792494 C55.6402494,5.21645065 60.6218823,0.220564286 66.7670216,0.220564286 C72.9126173,0.220564286 77.8942502,5.21645065 77.8942502,11.3792494" id="Fill-2" fill="#28B4D2"></path>
                    <path d="M102.173574,31.4763273 L71.1193572,55.32135 C68.6522672,57.2239344 65.7006109,58.1559994 62.7644681,58.1559994 C59.2118949,58.1559994 55.6743789,56.7931519 53.019759,54.12285 L45.0864698,46.1668792 C46.5073165,46.4566617 47.9751598,46.6054442 49.4822429,46.6054442 C55.2372655,46.6054442 60.4844516,44.3892721 64.4043278,40.7479929 L92.6784481,19.0408597 C96.1064577,16.4177104 101.00231,17.0677753 103.625904,20.4975545 C106.249497,23.9351162 105.601583,28.8453955 102.173574,31.4763273" id="Fill-4" fill="#28B4D2"></path>
                    <path d="M64.4043734,40.7479929 C60.4844972,44.3892721 55.2373111,46.6054442 49.4822886,46.6054442 C47.9752055,46.6054442 46.5073622,46.4566617 45.0865154,46.1668792 L37.2855466,38.344126 C34.2325968,35.2897364 34.2325968,30.3249799 37.2855466,27.2710481 C40.3389526,24.2171162 45.2813457,24.2171162 48.3269951,27.2710481 L62.9128037,41.8993403 L64.4043734,40.7479929 Z" id="Fill-6" fill="#E1BA23"></path>
                    <mask id="mask-2" fill="white">
                        <use xlink:href="#path-1"></use>
                    </mask>
                    <g id="Clip-9"></g>
                    <path d="M64.404419,40.7480844 C60.4845429,44.3893636 55.2373567,46.6055357 49.4823342,46.6055357 C47.9752511,46.6055357 46.5074078,46.4567532 45.0861048,46.1669708 L37.2855922,38.3437597 C34.2326424,35.2898279 34.2326424,30.3250714 37.2855922,27.2711396 C40.3389983,24.2172078 45.2813913,24.2172078 48.3265844,27.2711396 L62.9128494,41.898974 L64.404419,40.7480844 Z" id="Fill-8"></path>
                    <path d="M77.8942502,11.3792494 C77.8942502,12.162074 77.8162268,12.9220091 77.6601801,13.658139 C76.6134805,18.7323078 72.131471,22.5379344 66.7670216,22.5379344 C62.894142,22.5379344 59.4898589,20.5570675 57.4986658,17.5498305 C56.3196459,15.7877883 55.6402494,13.6659214 55.6402494,11.3792494 C55.6402494,5.21645065 60.6218823,0.220564286 66.7670216,0.220564286 C72.9126173,0.220564286 77.8942502,5.21645065 77.8942502,11.3792494" id="Fill-11" fill="#F9683D"></path>
                    <path d="M102.173574,31.4763273 L71.1193572,55.32135 C68.6522672,57.2239344 65.7006109,58.1559994 62.7644681,58.1559994 C59.2118949,58.1559994 55.6743789,56.7931519 53.019759,54.12285 L45.0864698,46.1668792 C46.5073165,46.4566617 47.9751598,46.6054442 49.4822429,46.6054442 C55.2372655,46.6054442 60.4844516,44.3892721 64.4043278,40.7479929 L92.6784481,19.0408597 C96.1064577,16.4177104 101.00231,17.0677753 103.625904,20.4975545 C106.249497,23.9351162 105.601583,28.8453955 102.173574,31.4763273" id="Fill-13" fill="#4855B5"></path>
                    <path d="M64.4043734,40.7479929 C60.4844972,44.3892721 55.2373111,46.6054442 49.4822886,46.6054442 C47.9752055,46.6054442 46.5073622,46.4566617 45.0865154,46.1668792 L37.2855466,38.344126 C34.2325968,35.2897364 34.2325968,30.3249799 37.2855466,27.2710481 C40.3389526,24.2171162 45.2813457,24.2171162 48.3269951,27.2710481 L62.9128037,41.8993403 L64.4043734,40.7479929 Z" id="Fill-15" fill="#F9683D"></path>
                    <path d="M62.3388072,129.488815 C62.3388072,128.705532 62.4168306,127.946055 62.5728773,127.209925 C63.6195769,122.135756 68.1015864,118.33013 73.4655795,118.33013 C77.3389154,118.33013 80.7431985,120.310997 82.7343916,123.318234 C83.9134115,125.080276 84.5928081,127.202143 84.5928081,129.488815 C84.5928081,135.651614 79.6107189,140.6475 73.4655795,140.6475 C67.3204401,140.6475 62.3388072,135.651614 62.3388072,129.488815" id="Fill-17" fill="#F9683D"></path>
                    <path d="M38.0593468,109.391645 L69.1135633,85.5466227 C71.5811096,83.6440383 74.5323096,82.7119734 77.4684525,82.7119734 C81.0214819,82.7119734 84.5585416,84.0748208 87.2131616,86.7451227 L95.1464507,94.7010935 C93.725604,94.411311 92.2577607,94.2625286 90.7506776,94.2625286 C84.9956551,94.2625286 79.7484689,96.4787006 75.8285927,100.11998 L47.5544724,121.827113 C44.1264629,124.450262 39.23061,123.800197 36.607017,120.370418 C33.9834239,116.932856 34.6313373,112.023035 38.0593468,109.391645" id="Fill-19" fill="#4855B5"></path>
                    <path d="M75.8287296,100.120026 C79.7486058,96.4787464 84.9957919,94.2625744 90.7503582,94.2625744 C92.2574413,94.2625744 93.7257409,94.4113568 95.1465876,94.7011393 L102.9471,102.523893 C106.000506,105.578282 106.000506,110.543039 102.9471,113.59697 C99.8941504,116.650902 94.951301,116.650902 91.906108,113.59697 L77.3202993,98.9686782 L75.8287296,100.120026 Z" id="Fill-21" fill="#F9683D"></path>
                    <path d="M11.2307578,62.6339396 C12.0114479,62.6339396 12.7688678,62.7122221 13.5030176,62.868787 C18.5626739,63.9180468 22.3575301,68.4131084 22.3575301,73.7926247 C22.3575301,77.6769916 20.3823068,81.0912058 17.3836539,83.0880955 C15.6269873,84.2705727 13.5107743,84.9517675 11.2307578,84.9517675 C5.08561844,84.9517675 0.103529264,79.9558812 0.103529264,73.7926247 C0.103529264,67.629826 5.08561844,62.6339396 11.2307578,62.6339396" id="Fill-23" fill="#F9683D"></path>
                    <path d="M31.270218,38.2849334 L55.0468154,69.4280795 C56.9444717,71.9024464 57.8734518,74.8625308 57.8734518,77.8070503 C57.8734518,81.3700471 56.5146587,84.9174789 53.8522821,87.5799984 L45.9189929,95.5359692 C46.2078163,94.110862 46.3561063,92.6386023 46.3561063,91.1274302 C46.3561063,85.3560438 44.1463565,80.0937224 40.5153037,76.1626607 L18.8704327,47.8070114 C16.2545964,44.3694497 16.9029661,39.4596282 20.3227626,36.8282386 C23.7507721,34.1973068 28.6466249,34.846914 31.270218,38.2849334" id="Fill-25" fill="#28B4D2"></path>
                    <path d="M40.5154406,76.1626149 C44.1464934,80.0936766 46.3562432,85.3559981 46.3562432,91.1273844 C46.3562432,92.6385565 46.2079532,94.1108162 45.9191298,95.5359234 L38.118161,103.359134 C35.0729679,106.420849 30.1223618,106.420849 27.0771687,103.359134 C24.0319757,100.296962 24.0319757,95.3404461 27.0771687,92.2860565 L41.6634337,77.6582221 L40.5154406,76.1626149 Z" id="Fill-27" fill="#E1BA23"></path>
                    <mask id="mask-4" fill="white">
                        <use xlink:href="#path-3"></use>
                    </mask>
                    <g id="Clip-30"></g>
                    <path d="M40.5155775,76.1624318 C44.146174,80.0934935 46.3563801,85.3558149 46.3563801,91.1272013 C46.3563801,92.6388312 46.2076338,94.1106331 45.9188104,95.5361981 L38.1182978,103.358951 C35.0731048,106.421123 30.1224987,106.421123 27.0773056,103.358951 C24.0316563,100.297237 24.0316563,95.340263 27.0773056,92.2863312 L41.6631143,77.6584968 L40.5155775,76.1624318 Z" id="Fill-29"></path>
                    <path d="M31.270218,38.2849334 L55.0468154,69.4280795 C56.9444717,71.9024464 57.8734518,74.8625308 57.8734518,77.8070503 C57.8734518,81.3700471 56.5146587,84.9174789 53.8522821,87.5799984 L45.9189929,95.5359692 C46.2078163,94.110862 46.3561063,92.6386023 46.3561063,91.1274302 C46.3561063,85.3560438 44.1463565,80.0937224 40.5153037,76.1626607 L18.8704327,47.8070114 C16.2545964,44.3694497 16.9029661,39.4596282 20.3227626,36.8282386 C23.7507721,34.1973068 28.6466249,34.846914 31.270218,38.2849334" id="Fill-32" fill="#4855B5"></path>
                    <path d="M40.5154406,76.1626149 C44.1464934,80.0936766 46.3562432,85.3559981 46.3562432,91.1273844 C46.3562432,92.6385565 46.2079532,94.1108162 45.9191298,95.5359234 L38.118161,103.359134 C35.0729679,106.420849 30.1223618,106.420849 27.0771687,103.359134 C24.0319757,100.296962 24.0319757,95.3404461 27.0771687,92.2860565 L41.6634337,77.6582221 L40.5154406,76.1626149 Z" id="Fill-34" fill="#F9683D"></path>
                    <path d="M129.0023,78.2340789 C128.22161,78.2340789 127.46419,78.1557964 126.73004,77.9992315 C121.670384,76.9499718 117.875071,72.4549101 117.875071,67.0753938 C117.875071,63.1910269 119.850751,59.7768127 122.849403,57.7799231 C124.60607,56.5974458 126.722283,55.916251 129.0023,55.916251 C135.147439,55.916251 140.129072,60.9121373 140.129072,67.0753938 C140.129072,73.2381925 135.147439,78.2340789 129.0023,78.2340789" id="Fill-36" fill="#F9683D"></path>
                    <path d="M108.962703,102.583085 L85.1861051,71.439939 C83.2884488,68.9655721 82.3594687,66.0054877 82.3594687,63.0609682 C82.3594687,59.4979714 83.7182618,55.9505396 86.3806384,53.2880201 L94.3143839,45.3320494 C94.0251042,46.7571565 93.8768142,48.2294162 93.8768142,49.7405883 C93.8768142,55.5119747 96.086564,60.7742961 99.7176168,64.7053578 L121.362488,93.0610071 C123.978324,96.4985688 123.330411,101.40839 119.910158,104.03978 C116.482148,106.670712 111.586296,106.021105 108.962703,102.583085" id="Fill-38" fill="#4855B5"></path>
                    <path d="M99.7175712,64.7054494 C96.0865184,60.7743877 93.8767686,55.5120662 93.8767686,49.7406799 C93.8767686,48.2295078 94.0250586,46.7572481 94.3143383,45.3321409 L102.114851,37.5089299 C105.160044,34.4472156 110.11065,34.4472156 113.155843,37.5089299 C116.201036,40.5711019 116.201036,45.5276182 113.155843,48.58155 L98.5695781,63.2098422 L99.7175712,64.7054494 Z" id="Fill-40" fill="#F9683D"></path>
                </g>
            </g>
        </g>
    </g>
</svg>