<?xml version="1.0" encoding="UTF-8"?>
<svg width="190px" height="36px" viewBox="0 0 190 36" version="1.1" xmlns="http://www.w3.org/2000/svg" xmlns:xlink="http://www.w3.org/1999/xlink">
    <!-- Generator: sketchtool 53.2 (72643) - https://sketchapp.com -->
    <title>ED986C0B-36DE-4B21-8533-8E6607FFFFE8</title>
    <desc>Created with sketchtool.</desc>
    <defs>
        <path d="M16.4982857,10.4037662 C15.4941429,11.3334545 14.149987,11.8992857 12.6757403,11.8992857 C12.2896753,11.8992857 11.9136623,11.8612987 11.5495714,11.7873117 L9.55133766,9.7898961 C8.76927273,9.01016883 8.76927273,7.74257143 9.55133766,6.96284416 C10.3335195,6.18311688 11.5995974,6.18311688 12.3796753,6.96284416 L16.1161948,10.6976104 L16.4982857,10.4037662 Z" id="path-1"></path>
        <path d="M10.3787532,19.4457273 C11.3087922,20.4494026 11.874974,21.792974 11.874974,23.2665195 C11.874974,23.6524675 11.8368701,24.0282468 11.7628831,24.3922208 L9.76464935,26.3895195 C8.98457143,27.1713506 7.71638961,27.1713506 6.93631169,26.3895195 C6.15611688,25.6078052 6.15611688,24.3421948 6.93631169,23.5624675 L10.6727143,19.8277013 L10.3787532,19.4457273 Z" id="path-3"></path>
    </defs>
    <g id="Page-1" stroke="none" stroke-width="1" fill="none" fill-rule="evenodd">
        <g id="dashboard-skill" transform="translate(-652.000000, -45.000000)">
            <g id="header">
                <g id="cliksource_logo" transform="translate(652.000000, 45.000000)">
                    <g id="Logo">
                        <g id="cliksource" transform="translate(46.687500, 4.062500)">
                            <path d="M9.22426471,21.9375 C4.37132353,21.9375 0.3125,18.6473093 0.3125,12.3816417 C0.3125,6.20180518 4.51838235,2.59690054 9.37132353,2.59690054 C11.8419118,2.59690054 13.8419118,3.74131471 15.1360294,5.02878065 L12.8419118,7.71815395 C11.8713235,6.85984332 10.8419118,6.23041553 9.45955882,6.23041553 C6.84191176,6.23041553 4.75367647,8.49063351 4.75367647,12.2385899 C4.75367647,16.0723774 6.57720588,18.303985 9.40073529,18.303985 C10.9595588,18.303985 12.1948529,17.5315054 13.1360294,16.5587534 L15.4301471,19.190906 C13.8419118,20.9933583 11.7242647,21.9375 9.22426471,21.9375 Z M22.5477941,21.9375 C19.5772059,21.9375 18.5772059,20.0492166 18.5772059,17.1881812 L18.5772059,1.53831744 L22.9007353,1.53831744 L22.9007353,17.3598433 C22.9007353,18.2467643 23.3125,18.5328678 23.6654412,18.5328678 C23.8419118,18.5328678 23.9595588,18.5328678 24.1948529,18.4756471 L24.7242647,21.5941757 C24.2536765,21.7944482 23.5183824,21.9375 22.5477941,21.9375 Z M27.5772059,21.5941757 L27.5772059,7.40344005 L31.9007353,7.40344005 L31.9007353,21.5941757 L27.5772059,21.5941757 Z M29.7242647,5.3148842 C28.2830882,5.3148842 27.2242647,4.39935286 27.2242647,3.11188692 C27.2242647,1.82442098 28.2830882,0.9375 29.7242647,0.9375 C31.1948529,0.9375 32.2242647,1.82442098 32.2242647,3.11188692 C32.2242647,4.39935286 31.1948529,5.3148842 29.7242647,5.3148842 Z M36.2830882,21.5941757 L36.2830882,1.53831744 L40.4889706,1.53831744 L40.4889706,13.0396798 L40.6066176,13.0396798 L45.2242647,7.40344005 L49.9301471,7.40344005 L44.8125,13.2399523 L50.3125,21.5941757 L45.6360294,21.5941757 L42.3419118,16.0723774 L40.4889706,18.1037125 L40.4889706,21.5941757 L36.2830882,21.5941757 Z" id="Clik" fill="#4855B5"></path>
                            <path d="M59.4329545,22.9375 C56.9215909,22.9375 54.2625,21.9907544 52.3125,20.1564349 L54.7943182,17.1682692 C56.1829545,18.3517012 57.9556818,19.1801036 59.5511364,19.1801036 C61.3534091,19.1801036 62.2397727,18.4700444 62.2397727,17.3161982 C62.2397727,16.1031805 61.1465909,15.7185651 59.4625,15.0085059 L56.9511364,13.9434172 C54.9715909,13.1446006 53.0806818,11.4877959 53.0806818,8.67714497 C53.0806818,5.4818787 55.9170455,2.9375 59.9352273,2.9375 C62.1511364,2.9375 64.4852273,3.82507396 66.1397727,5.4818787 L63.9238636,8.23335799 C62.6534091,7.25702663 61.4715909,6.69489645 59.9352273,6.69489645 C58.4284091,6.69489645 57.4829545,7.34578402 57.4829545,8.44045858 C57.4829545,9.62389053 58.7534091,10.0380917 60.4079545,10.7185651 L62.8897727,11.7244822 C65.2238636,12.6712278 66.7011364,14.2392751 66.7011364,16.9611686 C66.7011364,20.1564349 64.0420455,22.9375 59.4329545,22.9375 Z M76.5102273,22.9375 C72.7875,22.9375 69.3602273,20.1268491 69.3602273,15.2451923 C69.3602273,10.3635355 72.7875,7.55288462 76.5102273,7.55288462 C80.2034091,7.55288462 83.6306818,10.3635355 83.6306818,15.2451923 C83.6306818,20.1268491 80.2034091,22.9375 76.5102273,22.9375 Z M76.5102273,19.4167899 C78.2829545,19.4167899 79.1988636,17.789571 79.1988636,15.2451923 C79.1988636,12.7008136 78.2829545,11.0735947 76.5102273,11.0735947 C74.7079545,11.0735947 73.8215909,12.7008136 73.8215909,15.2451923 C73.8215909,17.789571 74.7079545,19.4167899 76.5102273,19.4167899 Z M91.6079545,22.9375 C88.4170455,22.9375 87.0579545,20.6889793 87.0579545,17.0203402 L87.0579545,7.9079142 L91.4011364,7.9079142 L91.4011364,16.4582101 C91.4011364,18.5588018 91.9625,19.2392751 93.2329545,19.2392751 C94.3261364,19.2392751 94.9761364,18.7659024 95.8329545,17.6120562 L95.8329545,7.9079142 L100.176136,7.9079142 L100.176136,22.5824704 L96.6306818,22.5824704 L96.3056818,20.5410503 L96.2170455,20.5410503 C94.9761364,22.0203402 93.6170455,22.9375 91.6079545,22.9375 Z M104.578409,22.5824704 L104.578409,7.9079142 L108.123864,7.9079142 L108.419318,10.4818787 L108.5375,10.4818787 C109.601136,8.49963018 111.196591,7.55288462 112.703409,7.55288462 C113.530682,7.55288462 114.032955,7.67122781 114.446591,7.8487426 L113.7375,11.6061391 C113.205682,11.4582101 112.7625,11.3694527 112.142045,11.3694527 C111.048864,11.3694527 109.689773,12.0795118 108.921591,14.0617604 L108.921591,22.5824704 L104.578409,22.5824704 Z M123.014773,22.9375 C118.9375,22.9375 115.776136,20.1268491 115.776136,15.2451923 C115.776136,10.3635355 119.351136,7.55288462 123.398864,7.55288462 C125.201136,7.55288462 126.589773,8.20377219 127.682955,9.12093195 L125.644318,11.9315828 C124.935227,11.3398669 124.344318,11.0735947 123.664773,11.0735947 C121.567045,11.0735947 120.2375,12.7008136 120.2375,15.2451923 C120.2375,17.789571 121.626136,19.4167899 123.517045,19.4167899 C124.4625,19.4167899 125.378409,18.9434172 126.146591,18.3517012 L127.860227,21.1919379 C126.4125,22.4641272 124.610227,22.9375 123.014773,22.9375 Z M137.580682,22.9375 C133.385227,22.9375 130.164773,20.0972633 130.164773,15.2451923 C130.164773,10.4818787 133.5625,7.55288462 137.078409,7.55288462 C141.244318,7.55288462 143.3125,10.6002219 143.3125,14.5943047 C143.3125,15.3635355 143.223864,16.1623521 143.135227,16.5173817 L134.360227,16.5173817 C134.744318,18.6475592 136.221591,19.6238905 138.171591,19.6238905 C139.264773,19.6238905 140.269318,19.2984467 141.332955,18.6475592 L142.780682,21.2806953 C141.273864,22.3161982 139.323864,22.9375 137.580682,22.9375 Z M134.330682,13.6475592 L139.619318,13.6475592 C139.619318,12.0203402 138.910227,10.8664941 137.167045,10.8664941 C135.807955,10.8664941 134.626136,11.7836538 134.330682,13.6475592 Z" id="Source" fill="#F9683D"></path>
                        </g>
                        <g id="Logo-Symbol">
                            <g>
                                <path d="M19.9539351,2.90534026 C19.9539351,3.10521039 19.9339481,3.29923636 19.893974,3.48718442 C19.6258442,4.78271688 18.4777013,5.75436623 17.1035065,5.75436623 C16.1114026,5.75436623 15.2393377,5.24861299 14.7292597,4.48080779 C14.4272338,4.03092468 14.2531948,3.48917143 14.2531948,2.90534026 C14.2531948,1.33185974 15.5293247,0.0563142857 17.1035065,0.0563142857 C18.6778052,0.0563142857 19.9539351,1.33185974 19.9539351,2.90534026" id="Fill-2" fill="#28B4D2"></path>
                                <path d="M26.1734961,8.03650909 L18.2184312,14.1246 C17.5864442,14.6103662 16.8303273,14.8483403 16.0781844,14.8483403 C15.1681325,14.8483403 14.2619377,14.5003792 13.5819117,13.8186 L11.5496649,11.7872883 C11.913639,11.8612753 12.2896519,11.8992623 12.6757169,11.8992623 C14.1499636,11.8992623 15.4941195,11.3334312 16.4982623,10.4037429 L23.7411584,4.8614961 C24.6193013,4.19175584 25.8734571,4.35772987 26.5455351,5.23341818 C27.217613,6.11109351 27.051639,7.36478182 26.1734961,8.03650909" id="Fill-4" fill="#28B4D2"></path>
                                <path d="M16.498274,10.4037429 C15.4941312,11.3334312 14.1499753,11.8992623 12.6757286,11.8992623 C12.2896636,11.8992623 11.9136506,11.8612753 11.5496766,11.7872883 L9.55132597,9.78998961 C8.76926104,9.01014545 8.76926104,7.74254805 9.55132597,6.96282078 C10.3335078,6.18309351 11.5995857,6.18309351 12.3797805,6.96282078 L16.1161831,10.6977039 L16.498274,10.4037429 Z" id="Fill-6" fill="#E1BA23"></path>
                                <mask id="mask-2" fill="white">
                                    <use xlink:href="#path-1"></use>
                                </mask>
                                <g id="Clip-9"></g>
                                <path d="M16.4982857,10.4037662 C15.4941429,11.3334545 14.149987,11.8992857 12.6757403,11.8992857 C12.2896753,11.8992857 11.9136623,11.8612987 11.5495714,11.7873117 L9.55133766,9.7898961 C8.76927273,9.01016883 8.76927273,7.74257143 9.55133766,6.96284416 C10.3335195,6.18311688 11.5995974,6.18311688 12.3796753,6.96284416 L16.1161948,10.6976104 L16.4982857,10.4037662 Z" id="Fill-8"></path>
                                <path d="M19.9539351,2.90534026 C19.9539351,3.10521039 19.9339481,3.29923636 19.893974,3.48718442 C19.6258442,4.78271688 18.4777013,5.75436623 17.1035065,5.75436623 C16.1114026,5.75436623 15.2393377,5.24861299 14.7292597,4.48080779 C14.4272338,4.03092468 14.2531948,3.48917143 14.2531948,2.90534026 C14.2531948,1.33185974 15.5293247,0.0563142857 17.1035065,0.0563142857 C18.6778052,0.0563142857 19.9539351,1.33185974 19.9539351,2.90534026" id="Fill-11" fill="#F9683D"></path>
                                <path d="M26.1734961,8.03650909 L18.2184312,14.1246 C17.5864442,14.6103662 16.8303273,14.8483403 16.0781844,14.8483403 C15.1681325,14.8483403 14.2619377,14.5003792 13.5819117,13.8186 L11.5496649,11.7872883 C11.913639,11.8612753 12.2896519,11.8992623 12.6757169,11.8992623 C14.1499636,11.8992623 15.4941195,11.3334312 16.4982623,10.4037429 L23.7411584,4.8614961 C24.6193013,4.19175584 25.8734571,4.35772987 26.5455351,5.23341818 C27.217613,6.11109351 27.051639,7.36478182 26.1734961,8.03650909" id="Fill-13" fill="#4855B5"></path>
                                <path d="M16.498274,10.4037429 C15.4941312,11.3334312 14.1499753,11.8992623 12.6757286,11.8992623 C12.2896636,11.8992623 11.9136506,11.8612753 11.5496766,11.7872883 L9.55132597,9.78998961 C8.76926104,9.01014545 8.76926104,7.74254805 9.55132597,6.96282078 C10.3335078,6.18309351 11.5995857,6.18309351 12.3797805,6.96282078 L16.1161831,10.6977039 L16.498274,10.4037429 Z" id="Fill-15" fill="#F9683D"></path>
                                <path d="M15.9691442,33.060974 C15.9691442,32.860987 15.9891312,32.6670779 16.0291052,32.4791299 C16.2972351,31.1835974 17.4453779,30.2119481 18.8194558,30.2119481 C19.8116766,30.2119481 20.6837416,30.7177013 21.1938195,31.4855065 C21.4958455,31.9353896 21.6698844,32.4771429 21.6698844,33.060974 C21.6698844,34.6344545 20.3936377,35.91 18.8194558,35.91 C17.245274,35.91 15.9691442,34.6344545 15.9691442,33.060974" id="Fill-17" fill="#F9683D"></path>
                                <path d="M9.74954805,27.9297818 L17.704613,21.8416909 C18.3367169,21.3559247 19.0927169,21.1179506 19.8448597,21.1179506 C20.7550286,21.1179506 21.6611065,21.4659117 22.3411325,22.1476909 L24.3733792,24.1790026 C24.0094052,24.1050156 23.6333922,24.0670286 23.2473273,24.0670286 C21.7730805,24.0670286 20.4289247,24.6328597 19.4247818,25.5625481 L12.1818857,31.1047948 C11.3037429,31.7745351 10.049587,31.608561 9.37750909,30.7328727 C8.70543117,29.8551974 8.87140519,28.601626 9.74954805,27.9297818" id="Fill-19" fill="#4855B5"></path>
                                <path d="M19.4248169,25.5625597 C20.4289597,24.6328714 21.7731156,24.0670403 23.2472455,24.0670403 C23.6333104,24.0670403 24.0094403,24.1050273 24.3734143,24.1790143 L26.3716481,26.176313 C27.1538299,26.9561571 27.1538299,28.2237545 26.3716481,29.0034818 C25.5895831,29.7832091 24.3233883,29.7832091 23.5433104,29.0034818 L19.8069078,25.2685987 L19.4248169,25.5625597 Z" id="Fill-21" fill="#F9683D"></path>
                                <path d="M2.87694935,15.9916442 C3.07693636,15.9916442 3.27096234,16.0116312 3.45902727,16.0516052 C4.75514416,16.3195013 5.72726104,17.4671766 5.72726104,18.8406701 C5.72726104,19.8324234 5.22127403,20.7041377 4.45311818,21.2139818 C4.00311818,21.5158909 3.46101429,21.689813 2.87694935,21.689813 C1.30276753,21.689813 0.0265207792,20.4142675 0.0265207792,18.8406701 C0.0265207792,17.2671896 1.30276753,15.9916442 2.87694935,15.9916442" id="Fill-23" fill="#F9683D"></path>
                                <path d="M8.0103974,9.77487662 L14.1011766,17.7263182 C14.5872935,18.3580714 14.8252675,19.1138377 14.8252675,19.8656299 C14.8252675,20.7753312 14.4771896,21.6810584 13.7951766,22.3608506 L11.7629299,24.3921623 C11.8369169,24.0283052 11.8749039,23.6524091 11.8749039,23.2665779 C11.8749039,21.7930325 11.308839,20.449461 10.3786831,19.4457857 L4.83398182,12.2060455 C4.16389091,11.3283701 4.32998182,10.0747987 5.20602078,9.40295455 C6.08416364,8.73122727 7.33831948,8.89708442 8.0103974,9.77487662" id="Fill-25" fill="#28B4D2"></path>
                                <path d="M10.3787182,19.445774 C11.308874,20.4494494 11.874939,21.7930208 11.874939,23.2665662 C11.874939,23.6523974 11.8369519,24.0282935 11.7629649,24.3921506 L9.76461429,26.3895662 C8.98453636,27.1712805 7.71635455,27.1712805 6.93627662,26.3895662 C6.1561987,25.6077351 6.1561987,24.3422416 6.93627662,23.5623974 L10.6727961,19.8276312 L10.3787182,19.445774 Z" id="Fill-27" fill="#E1BA23"></path>
                                <mask id="mask-4" fill="white">
                                    <use xlink:href="#path-3"></use>
                                </mask>
                                <g id="Clip-30"></g>
                                <path d="M10.3787532,19.4457273 C11.3087922,20.4494026 11.874974,21.792974 11.874974,23.2665195 C11.874974,23.6524675 11.8368701,24.0282468 11.7628831,24.3922208 L9.76464935,26.3895195 C8.98457143,27.1713506 7.71638961,27.1713506 6.93631169,26.3895195 C6.15611688,25.6078052 6.15611688,24.3421948 6.93631169,23.5624675 L10.6727143,19.8277013 L10.3787532,19.4457273 Z" id="Fill-29"></path>
                                <path d="M8.0103974,9.77487662 L14.1011766,17.7263182 C14.5872935,18.3580714 14.8252675,19.1138377 14.8252675,19.8656299 C14.8252675,20.7753312 14.4771896,21.6810584 13.7951766,22.3608506 L11.7629299,24.3921623 C11.8369169,24.0283052 11.8749039,23.6524091 11.8749039,23.2665779 C11.8749039,21.7930325 11.308839,20.449461 10.3786831,19.4457857 L4.83398182,12.2060455 C4.16389091,11.3283701 4.32998182,10.0747987 5.20602078,9.40295455 C6.08416364,8.73122727 7.33831948,8.89708442 8.0103974,9.77487662" id="Fill-32" fill="#4855B5"></path>
                                <path d="M10.3787182,19.445774 C11.308874,20.4494494 11.874939,21.7930208 11.874939,23.2665662 C11.874939,23.6523974 11.8369519,24.0282935 11.7629649,24.3921506 L9.76461429,26.3895662 C8.98453636,27.1712805 7.71635455,27.1712805 6.93627662,26.3895662 C6.1561987,25.6077351 6.1561987,24.3422416 6.93627662,23.5623974 L10.6727961,19.8276312 L10.3787182,19.445774 Z" id="Fill-34" fill="#F9683D"></path>
                                <path d="M33.0461299,19.9746584 C32.8461429,19.9746584 32.6521169,19.9546714 32.4640519,19.9146974 C31.1679351,19.6468013 30.1957013,18.499126 30.1957013,17.1256325 C30.1957013,16.1338792 30.7018052,15.2621649 31.469961,14.7523208 C31.919961,14.4504117 32.4620649,14.2764896 33.0461299,14.2764896 C34.6203117,14.2764896 35.8964416,15.5520351 35.8964416,17.1256325 C35.8964416,18.699113 34.6203117,19.9746584 33.0461299,19.9746584" id="Fill-36" fill="#F9683D"></path>
                                <path d="M27.9126468,26.191426 L21.8218675,18.2399844 C21.3357506,17.6082312 21.0977766,16.8524649 21.0977766,16.1006727 C21.0977766,15.1909714 21.4458545,14.2852442 22.1278675,13.6054519 L24.1602312,11.5741403 C24.0861273,11.9379974 24.0481403,12.3138935 24.0481403,12.6997247 C24.0481403,14.1732701 24.6142052,15.5168416 25.544361,16.5205169 L31.0890623,23.7602571 C31.7591532,24.6379325 31.5931792,25.8915039 30.7170234,26.5633481 C29.8388805,27.2350753 28.5847247,27.0692182 27.9126468,26.191426" id="Fill-38" fill="#4855B5"></path>
                                <path d="M25.5443494,16.5205403 C24.6141935,15.5168649 24.0481286,14.1732935 24.0481286,12.6997481 C24.0481286,12.3139169 24.0861156,11.9380208 24.1602195,11.5741636 L26.1584532,9.57674805 C26.9385312,8.79503377 28.206713,8.79503377 28.9867909,9.57674805 C29.7668688,10.3585792 29.7668688,11.6240727 28.9867909,12.4038 L25.2502714,16.1386831 L25.5443494,16.5205403 Z" id="Fill-40" fill="#F9683D"></path>
                            </g>
                        </g>
                    </g>
                </g>
            </g>
        </g>
    </g>
</svg>