<svg xmlns="http://www.w3.org/2000/svg" xmlns:xlink="http://www.w3.org/1999/xlink" width="29" height="29" viewBox="0 0 29 29">
    <defs>
        <path id="a" d="M6.027 3.239a4.439 4.439 0 0 1-3.025 1.183c-.306 0-.604-.03-.892-.088L.53 2.753a1.58 1.58 0 0 1 0-2.238 1.585 1.585 0 0 1 2.238 0l2.958 2.956.302-.232z"/>
        <path id="c" d="M3.219.034A4.465 4.465 0 0 1 4.314 3.95l-1.581 1.58A1.582 1.582 0 1 1 .494 3.293L3.451.336 3.22.034z"/>
    </defs>
    <g fill="none" fill-rule="evenodd">
        <path fill="#28B4D2" d="M15.792 2.3a2.255 2.255 0 0 1-4.135 1.247A2.255 2.255 0 1 1 15.792 2.3M20.715 6.36l-6.296 4.819c-.5.384-1.099.572-1.694.572-.72 0-1.438-.275-1.976-.814L9.141 9.329c.288.058.585.088.891.088 1.167 0 2.23-.447 3.025-1.183l5.733-4.386a1.585 1.585 0 0 1 2.219.294 1.58 1.58 0 0 1-.294 2.218"/>
        <path fill="#E1BA23" d="M13.057 8.234a4.439 4.439 0 0 1-3.025 1.183c-.306 0-.603-.03-.891-.088l-1.582-1.58a1.58 1.58 0 0 1 0-2.238 1.585 1.585 0 0 1 2.239 0l2.957 2.956.302-.233z"/>
        <g transform="translate(7.03 4.995)">
            <mask id="b" fill="#fff">
                <use xlink:href="#a"/>
            </mask>
            <path d="M6.027 3.239a4.439 4.439 0 0 1-3.025 1.183c-.306 0-.604-.03-.892-.088L.53 2.753a1.58 1.58 0 0 1 0-2.238 1.585 1.585 0 0 1 2.238 0l2.958 2.956.302-.232z" mask="url(#b)"/>
        </g>
        <path fill="#F9683D" d="M15.792 2.3a2.255 2.255 0 0 1-4.135 1.247A2.255 2.255 0 1 1 15.792 2.3"/>
        <path fill="#4855B5" d="M20.715 6.36l-6.296 4.819c-.5.384-1.099.572-1.694.572-.72 0-1.438-.275-1.976-.814L9.141 9.329c.288.058.585.088.891.088 1.167 0 2.23-.447 3.025-1.183l5.733-4.386a1.585 1.585 0 0 1 2.219.294 1.58 1.58 0 0 1-.294 2.218"/>
        <path fill="#F9683D" d="M13.057 8.234a4.439 4.439 0 0 1-3.025 1.183c-.306 0-.603-.03-.891-.088l-1.582-1.58a1.58 1.58 0 0 1 0-2.238 1.585 1.585 0 0 1 2.239 0l2.957 2.956.302-.233zM12.639 26.166a2.255 2.255 0 0 1 4.135-1.247 2.255 2.255 0 1 1-4.135 1.247"/>
        <path fill="#4855B5" d="M7.716 22.105l6.296-4.819a2.774 2.774 0 0 1 1.694-.573c.72 0 1.437.276 1.976.815l1.608 1.608a4.467 4.467 0 0 0-.891-.089c-1.167 0-2.23.448-3.026 1.184l-5.732 4.386a1.585 1.585 0 0 1-2.22-.294 1.58 1.58 0 0 1 .295-2.218"/>
        <path fill="#F9683D" d="M15.373 20.231a4.438 4.438 0 0 1 3.026-1.184c.305 0 .603.03.89.09l1.582 1.58a1.58 1.58 0 0 1 0 2.237 1.585 1.585 0 0 1-2.238 0l-2.957-2.956-.303.233zM2.277 12.656a2.254 2.254 0 0 1 0 4.51 2.255 2.255 0 1 1 0-4.51"/>
        <path fill="#28B4D2" d="M6.34 7.736l4.82 6.293c.385.5.573 1.098.573 1.693 0 .72-.275 1.437-.815 1.975L9.31 19.305c.058-.288.088-.586.088-.891 0-1.166-.448-2.23-1.184-3.024L3.826 9.66A1.584 1.584 0 0 1 6.34 7.736"/>
        <path fill="#E1BA23" d="M8.214 15.39a4.434 4.434 0 0 1 1.184 3.024c0 .305-.03.603-.088.89l-1.582 1.582a1.582 1.582 0 1 1-2.238-2.238l2.957-2.956-.233-.302z"/>
        <g transform="translate(4.995 15.356)">
            <mask id="d" fill="#fff">
                <use xlink:href="#c"/>
            </mask>
            <path d="M3.219.034A4.465 4.465 0 0 1 4.314 3.95l-1.581 1.58A1.582 1.582 0 1 1 .494 3.293L3.451.336 3.22.034z" mask="url(#d)"/>
        </g>
        <path fill="#4855B5" d="M6.34 7.736l4.82 6.293c.385.5.573 1.098.573 1.693 0 .72-.275 1.437-.815 1.975L9.31 19.305c.058-.288.088-.586.088-.891 0-1.166-.448-2.23-1.184-3.024L3.826 9.66A1.584 1.584 0 0 1 6.34 7.736"/>
        <path fill="#F9683D" d="M8.214 15.39a4.434 4.434 0 0 1 1.184 3.024c0 .305-.03.603-.088.89l-1.582 1.582a1.582 1.582 0 1 1-2.238-2.238l2.957-2.956-.233-.302zM26.154 15.809a2.255 2.255 0 0 1 0-4.51 2.255 2.255 0 1 1 0 4.51"/>
        <path fill="#4855B5" d="M22.091 20.729l-4.82-6.293a2.77 2.77 0 0 1-.574-1.693c0-.72.276-1.437.816-1.975L19.12 9.16a4.457 4.457 0 0 0-.088.891c0 1.166.448 2.23 1.184 3.024l4.388 5.73a1.584 1.584 0 0 1-2.514 1.924"/>
        <path fill="#F9683D" d="M20.217 13.075a4.434 4.434 0 0 1-1.184-3.024c0-.305.03-.603.088-.89l1.582-1.582a1.582 1.582 0 1 1 2.238 2.238l-2.957 2.956.233.302z"/>
    </g>
</svg>
