<svg xmlns="http://www.w3.org/2000/svg" width="13" height="16" viewBox="0 0 13 16">
    <g fill="#7A7A7A" fill-rule="nonzero">
        <path d="M6.5 15.2C2.922 15.2 0 12.373 0 8.91c0-2.414 1.412-4.606 3.677-5.654.23-.127.525-.032.656.222.132.223.033.509-.23.636C2.168 5.004.986 6.846.986 8.91c0 2.955 2.462 5.337 5.515 5.337 3.053 0 5.515-2.382 5.515-5.337 0-2.064-1.182-3.907-3.119-4.796-.23-.127-.36-.413-.23-.636.132-.222.427-.349.657-.222C11.588 4.336 13 6.496 13 8.91c0 3.463-2.922 6.29-6.5 6.29z"/>
        <path d="M6.5 8.2c-.267 0-.5-.22-.5-.47V.67c0-.25.233-.47.5-.47s.5.22.5.47v7.06c0 .25-.233.47-.5.47z"/>
    </g>
</svg>
