<svg xmlns="http://www.w3.org/2000/svg" width="26" height="26" viewBox="0 0 26 26">
    <g fill="#4855B5" fill-rule="nonzero">
        <path d="M22.537 3.873H14.49a.204.204 0 1 1 0-.408h8.048a.204.204 0 1 1 0 .408zM22.537 6.196H14.49a.204.204 0 1 1 0-.408h8.048a.204.204 0 1 1 0 .408zM22.537 8.518H14.49a.204.204 0 1 1 0-.409h8.048a.204.204 0 1 1 0 .409zM15.987 25.667h-.014c-3.045-.018-5.84-1.129-8.312-3.302a62.842 62.842 0 0 1-1.615-1.484l-.05-.047a79.923 79.923 0 0 0-.419-.393l-.052-.053C3.635 18.263 1.88 16.148 1 13.462.487 11.9.306 10.32.46 8.767c.084-.84.543-1.6.932-2.17.326-.476.754-.827 1.13-1.136.094-.077.171-.14.246-.205 1.09-.927 2.44-.86 3.427.165.655.678 1.291 1.364 1.893 2.039.974 1.093.949 2.41-.067 3.438-.898.909-1.145 1.936-.755 3.14.69 2.126 2.091 3.626 4.163 4.457 1.124.452 2.174.267 3.12-.551.486-.423 1.052-.647 1.635-.647.638 0 1.26.277 1.75.78a54.072 54.072 0 0 1 2.033 2.192c.894 1.022.845 2.362-.122 3.334-.07.07-.14.145-.211.218l-.041.043c-.36.378-.765.803-1.296 1.1-.837.467-1.614.703-2.31.703zM4.418 5.611c-.326 0-.657.142-.987.423-.08.068-.161.135-.243.202-.358.294-.71.582-.953.938-.321.47-.698 1.085-.758 1.695-.142 1.411.024 2.85.492 4.275.82 2.502 2.503 4.525 4.302 6.549l.018.018.407.38.034.033c.466.439 1.025.966 1.605 1.476 2.282 2.005 4.853 3.03 7.641 3.047l.012.51v-.51c.52 0 1.13-.193 1.814-.574.395-.22.714-.555 1.052-.91l.043-.045.227-.234c.592-.594.62-1.32.077-1.941a52.898 52.898 0 0 0-1.994-2.151c-.577-.59-1.36-.62-1.988-.076-1.234 1.07-2.687 1.322-4.169.727-2.365-.949-3.964-2.662-4.752-5.09-.505-1.556-.16-2.999 1-4.171.627-.635.638-1.36.03-2.041a70.506 70.506 0 0 0-1.865-2.01c-.333-.346-.684-.52-1.045-.52z"/>
        <path d="M11.434 13.355V3.743c.012-2.106 1.786-3.41 3.425-3.41h.044c.95.014 1.897.02 2.983.02.608 0 1.207-.002 1.822-.004h.05C20.433.347 21.13.345 21.88.345h.241c.766 0 1.492.244 2.1.704a3.398 3.398 0 0 1 1.355 2.61c.04 1.328.042 3.712-.394 4.774a5.84 5.84 0 0 1-.811 1.392c-.743.945-1.759 1.643-2.859 1.965-.777.227-1.398.259-2.28.224-.232-.009-.472-.018-.757-.018-1.123 0-2.245.002-3.363.004-.417.412-1.04 1.032-1.556 1.545l-.49.489a.959.959 0 0 1-1.632-.679zm7.843-2.36c.2.008.386.015.57.015.5 0 .888-.056 1.379-.2.897-.262 1.73-.836 2.342-1.616.276-.35.5-.736.67-1.148.262-.639.381-2.267.318-4.355a2.381 2.381 0 0 0-.953-1.829 2.433 2.433 0 0 0-1.482-.497h-.241c-.75 0-1.445.003-2.119.005h-.05c-.616.002-1.216.003-1.825.003-1.09 0-2.044-.006-3.03-.02-1.149 0-2.393.916-2.402 2.393v9.457l.396-.395c.527-.524 1.187-1.181 1.603-1.592l.06-.06a.662.662 0 0 1 .434-.177c1.175-.002 2.351-.004 3.528-.004.3 0 .552.01.802.02z"/>
    </g>
</svg>
