<svg xmlns="http://www.w3.org/2000/svg" width="24" height="24" viewBox="0 0 24 24">
    <g fill="none" fill-rule="evenodd">
        <path fill="#F9FAFD" d="M-384-80h1440v968H-384z"/>
        <path d="M-14 21h24v24h-24z"/>
        <path d="M0 0h24v24H0z"/>
        <path fill="#5866D1" fill-rule="nonzero" d="M22.349 24H2.65c-.36 0-.651-.224-.651-.5s.292-.5.651-.5H22.35c.36 0 .651.224.651.5s-.292.5-.651.5zM22.315 20h-9.63c-.24.01-.468-.082-.592-.241a.406.406 0 0 1 0-.518c.124-.159.353-.251.592-.24h9.63c.24-.011.468.081.592.24a.406.406 0 0 1 0 .518c-.124.159-.353.251-.592.24zM21.384 16h-4.768c-.34 0-.616-.224-.616-.5s.276-.5.616-.5h4.768c.34 0 .616.224.616.5s-.276.5-.616.5zM10.075 18L5 12.92 17.04.877a3 3 0 0 1 4.24 0l.842.842a2.997 2.997 0 0 1 0 4.238L10.075 18zm-3.233-5.08l3.233 3.229L21.196 5.032a1.683 1.683 0 0 0 0-2.387l-.842-.842a1.684 1.684 0 0 0-2.388 0L6.842 12.92zM1.884 21a.881.881 0 0 1-.854-1.11l1.377-5.186a.95.95 0 0 1 1.588-.426l3.727 3.723a.95.95 0 0 1-.426 1.59L2.117 20.97a.87.87 0 0 1-.233.03zm1.656-5.25l-.98 3.69 3.684-.982L3.54 15.75z"/>
        <path fill="#5866D1" fill-rule="nonzero" d="M19.356 8a.638.638 0 0 1-.455-.187l-3.712-3.71a.646.646 0 1 1 .914-.914l3.709 3.71A.645.645 0 0 1 19.356 8z"/>
    </g>
</svg>
