<?xml version="1.0" encoding="UTF-8"?>
<svg width="40px" height="40px" viewBox="0 0 40 40" version="1.1" xmlns="http://www.w3.org/2000/svg" xmlns:xlink="http://www.w3.org/1999/xlink">
    <!-- Generator: sketchtool 53.2 (72643) - https://sketchapp.com -->
    <title>B0B624E5-EBFC-43D9-BB83-4E8ED71E4AE2</title>
    <desc>Created with sketchtool.</desc>
    <g id="Page-1" stroke="none" stroke-width="1" fill="none" fill-rule="evenodd">
        <g id="dashboard-skill" transform="translate(-1172.000000, -236.000000)" fill="#FFFFFF" fill-rule="nonzero">
            <g id="Group-4" transform="translate(406.000000, 155.000000)">
                <g id="block" transform="translate(747.000000, 46.000000)">
                    <g id="noun_rejected_1748441_000000-2" transform="translate(19.000000, 35.000000)">
                        <g id="noun_rejected_1748441_000000" transform="translate(4.000000, 1.000000)">
                            <path d="M16.9716614,30.9322602 C16.9716614,26.1435278 20.8738004,22.2401073 25.6609607,22.2401073 C25.9827866,22.2401073 26.3046125,22.2401073 26.6666667,22.3205902 C25.4195913,19.2622401 23.2472665,15.3185781 18.8623885,15.3185781 L18.6612474,15.3185781 L16.3280096,21.3547954 L15.4429883,17.4513749 L15.5234448,17.4513749 C15.8452707,17.4513749 16.0866401,17.1696848 16.0866401,16.8879946 L16.0866401,15.8014755 C16.0866401,15.4795439 15.8050425,15.2380952 15.5234448,15.2380952 L14.1556847,15.2380952 C13.8338588,15.2380952 13.5924894,15.5197854 13.5924894,15.8014755 L13.5924894,16.8879946 C13.5924894,17.2099262 13.8740871,17.4513749 14.1556847,17.4513749 L14.2361412,17.4513749 L13.35112,21.3547954 L11.0581104,15.3185781 L10.8569692,15.3185781 C5.62729831,15.3185781 3.53542995,20.952381 2.44926753,23.9704896 C2.28835458,24.3729041 2.16766986,24.7753186 2.04698515,25.0972502 C1.40333335,26.7069081 0.638996829,29.7652582 0.0758015004,32.2199866 C-0.246024402,33.6284373 0.478083878,35.0771294 1.84584396,35.6002683 C1.84584396,35.6002683 1.8860722,35.6002683 1.92630044,35.6405097 C3.61588642,36.3246144 5.5066136,35.3185781 5.90889598,33.5479544 C6.47209131,31.093226 7.11574311,28.4775319 7.55825373,27.3507713 C7.71916668,26.9885983 7.88007963,26.5861838 8.04099258,26.1032864 L8.24213377,34.9564051 C8.28236201,36.4453387 9.36852443,37.6928236 10.8569692,37.8537894 C12.1845011,38.0147552 13.5120329,38.0952381 14.9200212,38.0952381 C16.3280096,38.0952381 17.6555414,38.0147552 18.9830733,37.8537894 C19.3451274,37.813548 19.7474098,37.6928236 20.0290074,37.5318578 C18.1382803,35.8819584 16.9716614,33.5479544 16.9716614,30.9322602 Z" id="Path"></path>
                            <circle id="Oval" cx="15.2380952" cy="6.85714286" r="6.85714286"></circle>
                            <path d="M25.9047619,25.1428571 C22.5405071,25.1428571 19.8095238,27.8738404 19.8095238,31.2380952 C19.8095238,34.60235 22.5405071,37.3333333 25.9047619,37.3333333 C29.2690167,37.3333333 32,34.60235 32,31.2380952 C32,27.8738404 29.2690167,25.1428571 25.9047619,25.1428571 Z M29.1106988,33.1379097 L27.8045764,34.4440322 L25.9047619,32.5442177 L24.0049474,34.4440322 L22.698825,33.1379097 L24.5986395,31.2380952 L22.698825,29.3382808 L24.0049474,28.0321583 L25.9047619,29.9319728 L27.8045764,28.0321583 L29.1106988,29.3382808 L27.2108844,31.2380952 L29.1106988,33.1379097 Z" id="Shape"></path>
                        </g>
                    </g>
                </g>
            </g>
        </g>
    </g>
</svg>