<?xml version="1.0" encoding="UTF-8"?>
<svg width="41px" height="41px" viewBox="0 0 41 41" version="1.1" xmlns="http://www.w3.org/2000/svg" xmlns:xlink="http://www.w3.org/1999/xlink">
    <!-- Generator: sketchtool 53.2 (72643) - https://sketchapp.com -->
    <title>57F3E2B9-4E17-40BC-A932-FA177085EBC7</title>
    <desc>Created with sketchtool.</desc>
    <g id="Page-1" stroke="none" stroke-width="1" fill="none" fill-rule="evenodd">
        <g id="dashboard-skill" transform="translate(-421.000000, -228.000000)" fill="#FFFFFF" fill-rule="nonzero">
            <g id="Group-4" transform="translate(406.000000, 155.000000)">
                <g id="block" transform="translate(0.000000, 46.000000)">
                    <g id="noun_send_897909_000000-2" transform="translate(15.964373, 27.964373)">
                        <g id="noun_send_897909_000000" transform="translate(20.500000, 20.500000) rotate(66.000000) translate(-20.500000, -20.500000) translate(5.000000, 5.000000)">
                            <path d="M29.842264,0.3826402 L29.842264,0.3826402 C29.4624908,0.0138374159 28.892831,-0.0968034194 28.3231712,0.0875979727 L2.27072891,10.2296745 C1.73904641,10.4140759 1.3592732,10.9672801 1.3592732,11.5204843 C1.3592732,12.1105687 1.77702374,12.6268926 2.30870623,12.7744138 L13.3221293,16.4624416 L17.1198615,27.1577223 C17.3097481,27.6740462 17.7654759,28.0059687 18.3351357,28.0797293 L18.4110904,28.0797293 C18.9807502,28.0797293 19.55041,27.7109265 19.7402966,27.1946026 L30.1840599,1.85785134 C30.4119238,1.34152744 30.2600146,0.788323263 29.842264,0.3826402 Z M18.8288409,13.0325757 C19.0946822,12.7744138 19.2465914,12.4424912 19.2465914,12.0736885 C19.2465914,11.7048857 19.0946822,11.3729632 18.8288409,11.1148012 C18.2971584,10.5984773 17.3857027,10.5984773 16.8540202,11.1148012 L14.0816758,13.8070615 L6.86598476,11.4098435 L26.3863278,3.81250609 L18.5250223,22.7320889 L16.0564965,15.6879557 L18.8288409,13.0325757 Z" id="Shape"></path>
                            <path d="M5.5234161,18.8247249 L2.36511743,21.8840437 C1.80113553,22.4262015 0.89876448,22.387476 0.372381369,21.8065926 L0.372381369,21.8065926 C-0.154001743,21.2257093 -0.116402949,20.296296 0.447578956,19.7541382 L3.60587763,16.6948193 C4.16985953,16.1526616 5.07223058,16.1913871 5.59861369,16.7722705 L5.59861369,16.7722705 C6.08739801,17.3531538 6.08739801,18.2825671 5.5234161,18.8247249 Z" id="Shape"></path>
                            <path d="M8.57443125,24.2611212 L3.69992981,29.0230446 C3.1417808,29.5650522 2.24874237,29.5263373 1.72780328,28.945615 L1.72780328,28.945615 C1.2068642,28.3648926 1.24407413,27.4357368 1.80222315,26.8937293 L6.67672458,22.1318059 C7.2348736,21.5897983 8.12791203,21.6285132 8.64885112,22.2092355 L8.64885112,22.2092355 C9.1697902,22.7899579 9.13258027,23.7191137 8.57443125,24.2611212 Z" id="Shape"></path>
                            <path d="M13.6654675,26.9803641 L10.5149384,30.039683 C9.95234389,30.5818407 9.05219271,30.5431152 8.52710452,29.9622319 L8.52710452,29.9622319 C8.00201632,29.3813485 8.03952262,28.4519352 8.60211712,27.9097774 L11.7526463,24.8504586 C12.3152408,24.3083008 13.2153919,24.3470263 13.7404801,24.9279097 L13.7404801,24.9279097 C14.2655683,25.508793 14.228062,26.4382063 13.6654675,26.9803641 Z" id="Shape"></path>
                        </g>
                    </g>
                </g>
            </g>
        </g>
    </g>
</svg>