<?xml version="1.0" encoding="UTF-8"?>
<svg width="12px" height="11px" viewBox="0 0 12 11" version="1.1" xmlns="http://www.w3.org/2000/svg" xmlns:xlink="http://www.w3.org/1999/xlink">
    <!-- Generator: sketchtool 53.2 (72643) - https://sketchapp.com -->
    <title>1BA765E3-4D8F-4F88-8EA6-E4D9C03D8047</title>
    <desc>Created with sketchtool.</desc>
    <g id="Page-1" stroke="none" stroke-width="1" fill="none" fill-rule="evenodd">
        <g id="dashboard" transform="translate(-109.000000, -404.000000)" fill="#5964BC" fill-rule="nonzero">
            <g id="search_candidate----resume_tab-(active)" transform="translate(40.000000, 194.000000)">
                <g id="search-candidate-accordian-expanded-view" transform="translate(0.000000, 61.000000)">
                    <g id="upload-Button" transform="translate(21.000000, 138.000000)">
                        <g id="8:20" transform="translate(10.000000, 6.000000)">
                            <g id="noun_Upload_385693_000000" transform="translate(38.000000, 5.000000)">
                                <g id="Shape-2" transform="translate(0.082352, 0.098477)">
                                    <path d="M5.58014641,0.00189832995 C5.51197089,0.0109146676 5.44878091,0.0425034918 5.40066112,0.0916234637 L3.34940073,2.14248366 C3.25765565,2.21640093 3.21618178,2.33620648 3.24259556,2.45101162 C3.26900935,2.56581677 3.35867275,2.65546268 3.4735003,2.68187131 C3.58832785,2.70827995 3.70815677,2.66681416 3.78208847,2.57508699 L5.30771338,1.04655524 L5.30771338,6.87228 C5.30614408,6.98322208 5.36444365,7.08641484 5.46028803,7.14234375 C5.55613242,7.19827266 5.67467246,7.19827266 5.77051685,7.14234375 C5.86636124,7.08641484 5.92466081,6.98322208 5.9230915,6.87228 L5.9230915,1.04655524 L7.45192151,2.57508699 C7.52585321,2.66681416 7.64568213,2.70827995 7.76050968,2.68187131 C7.87533723,2.65546268 7.96500063,2.56581677 7.99141442,2.45101162 C8.0178282,2.33620648 7.97635433,2.21640093 7.88460925,2.14248366 L5.83334886,0.0916234637 C5.76715062,0.0245162102 5.67383811,-0.00855012753 5.58014641,0.00189832995 Z M1.30455052,6.55824203 C1.22238329,6.5590882 1.14396759,6.59275601 1.08677359,6.65174463 C1.02957958,6.71073325 0.998358678,6.79014219 1.00006656,6.87228 L1.00006656,7.59008107 C1.00006656,8.49370033 1.73727754,9.23076923 2.64107487,9.23076923 L8.58973001,9.23076923 C9.49352724,9.23076923 10.2307383,8.49370033 10.2307383,7.59008107 L10.2307383,6.87228 C10.2323076,6.76133792 10.1740081,6.65814517 10.0781637,6.60221625 C9.98231929,6.54628734 9.86377925,6.54628734 9.76793486,6.60221625 C9.67209047,6.65814517 9.61379091,6.76133792 9.61536021,6.87228 L9.61536021,7.59008107 C9.61536021,8.16349133 9.16325257,8.61551117 8.58973001,8.61551117 L2.64107487,8.61551117 C2.06755221,8.61551117 1.61544468,8.16349133 1.61544468,7.59008107 L1.61544468,6.87228 C1.61717587,6.7890307 1.58508267,6.70863495 1.52649509,6.64945491 C1.4679075,6.59027488 1.38782944,6.55736509 1.30455052,6.55824203 Z" id="Shape"></path>
                                </g>
                            </g>
                        </g>
                    </g>
                </g>
            </g>
        </g>
    </g>
</svg>